SplineFontDB: 3.2
FontName: cardian-icons
FullName: cardian-icons
FamilyName: cardian-icons
Weight: Regular
Copyright: Copyright (c) 2023, 
UComments: "2023-4-8: Created with FontForge (http://fontforge.org)"
Version: 001.000
ItalicAngle: 0
UnderlinePosition: -102.4
UnderlineWidth: 51.2
Ascent: 819
Descent: 205
InvalidEm: 0
LayerCount: 2
Layer: 0 0 "Back" 1
Layer: 1 0 "Fore" 0
XUID: [1021 585 -1305602937 11356290]
OS2Version: 0
OS2_WeightWidthSlopeOnly: 0
OS2_UseTypoMetrics: 1
CreationTime: 1680980971
ModificationTime: 1685211907
OS2TypoAscent: 0
OS2TypoAOffset: 1
OS2TypoDescent: 0
OS2TypoDOffset: 1
OS2TypoLinegap: 0
OS2WinAscent: 0
OS2WinAOffset: 1
OS2WinDescent: 0
OS2WinDOffset: 1
HheadAscent: 0
HheadAOffset: 1
HheadDescent: 0
HheadDOffset: 1
OS2Vendor: 'PfEd'
DEI: 91125
Encoding: ISO8859-1
UnicodeInterp: none
NameList: AGL For New Fonts
DisplaySize: -48
AntiAlias: 1
FitToEm: 0
WinInfo: 150 15 4
BeginChars: 446 204

StartChar: plus
Encoding: 43 43 0
Width: 1024
Flags: HW
LayerCount: 2
Fore
SplineSet
811 264 m 1
 555 264 l 1
 555 8 l 1
 469 8 l 1
 469 264 l 1
 213 264 l 1
 213 350 l 1
 469 350 l 1
 469 606 l 1
 555 606 l 1
 555 350 l 1
 811 350 l 1
 811 264 l 1
EndSplineSet
EndChar

StartChar: 0
Encoding: 48 48 1
Width: 1024
Flags: HW
LayerCount: 2
Fore
SplineSet
469 520 m 2
 555 520 l 2
 602 520 640 482 640 435 c 2
 640 179 l 2
 640 132 602 94 555 94 c 2
 469 94 l 2
 422 94 384 132 384 179 c 2
 384 435 l 2
 384 482 422 520 469 520 c 2
469 435 m 1
 469 179 l 1
 555 179 l 1
 555 435 l 1
 469 435 l 1
EndSplineSet
EndChar

StartChar: 1
Encoding: 49 49 2
Width: 1024
Flags: HW
LayerCount: 2
Fore
SplineSet
427 520 m 1
 597 520 l 1
 597 94 l 1
 512 94 l 1
 512 435 l 1
 427 435 l 1
 427 520 l 1
EndSplineSet
EndChar

StartChar: 2
Encoding: 50 50 3
Width: 1024
Flags: HW
LayerCount: 2
Fore
SplineSet
384 520 m 1
 555 520 l 2
 602 520 640 482 640 435 c 2
 640 350 l 2
 640 303 602 264 555 264 c 2
 469 264 l 1
 469 179 l 1
 640 179 l 1
 640 94 l 1
 384 94 l 1
 384 264 l 2
 384 311 422 350 469 350 c 2
 555 350 l 1
 555 435 l 1
 384 435 l 1
 384 520 l 1
EndSplineSet
EndChar

StartChar: 3
Encoding: 51 51 4
Width: 1024
Flags: HW
LayerCount: 2
Fore
SplineSet
640 179 m 2
 640 132 602 94 555 94 c 2
 384 94 l 1
 384 179 l 1
 555 179 l 1
 555 264 l 1
 469 264 l 1
 469 350 l 1
 555 350 l 1
 555 435 l 1
 384 435 l 1
 384 520 l 1
 555 520 l 2
 602 520 640 482 640 435 c 2
 640 371 l 2
 640 337 610 307 576 307 c 1
 610 307 640 277 640 243 c 2
 640 179 l 2
EndSplineSet
EndChar

StartChar: 4
Encoding: 52 52 5
Width: 1024
Flags: HW
LayerCount: 2
Fore
SplineSet
384 520 m 1
 469 520 l 1
 469 350 l 1
 555 350 l 1
 555 520 l 1
 640 520 l 1
 640 94 l 1
 555 94 l 1
 555 264 l 1
 384 264 l 1
 384 520 l 1
EndSplineSet
EndChar

StartChar: 5
Encoding: 53 53 6
Width: 1024
Flags: HW
LayerCount: 2
Fore
SplineSet
384 520 m 1
 640 520 l 1
 640 435 l 1
 469 435 l 1
 469 350 l 1
 555 350 l 2
 602 350 640 311 640 264 c 2
 640 179 l 2
 640 132 602 94 555 94 c 2
 384 94 l 1
 384 179 l 1
 555 179 l 1
 555 264 l 1
 384 264 l 1
 384 520 l 1
EndSplineSet
EndChar

StartChar: 6
Encoding: 54 54 7
Width: 1024
Flags: HW
LayerCount: 2
Fore
SplineSet
469 520 m 2
 640 520 l 1
 640 435 l 1
 469 435 l 1
 469 350 l 1
 555 350 l 2
 602 350 640 311 640 264 c 2
 640 179 l 2
 640 132 602 94 555 94 c 2
 469 94 l 2
 422 94 384 132 384 179 c 2
 384 435 l 2
 384 482 422 520 469 520 c 2
469 264 m 1
 469 179 l 1
 555 179 l 1
 555 264 l 1
 469 264 l 1
EndSplineSet
EndChar

StartChar: 7
Encoding: 55 55 8
Width: 1024
Flags: HW
LayerCount: 2
Fore
SplineSet
469 94 m 1
 384 94 l 1
 555 435 l 1
 384 435 l 1
 384 520 l 1
 640 520 l 1
 640 435 l 1
 469 94 l 1
EndSplineSet
EndChar

StartChar: 8
Encoding: 56 56 9
Width: 1024
Flags: HW
LayerCount: 2
Fore
SplineSet
469 94 m 2
 422 94 384 132 384 179 c 2
 384 243 l 2
 384 277 414 307 448 307 c 1
 414 307 384 337 384 371 c 2
 384 435 l 2
 384 482 422 520 469 520 c 2
 555 520 l 2
 602 520 640 482 640 435 c 2
 640 371 l 2
 640 337 610 307 576 307 c 1
 610 307 640 277 640 243 c 2
 640 179 l 2
 640 132 602 94 555 94 c 2
 469 94 l 2
469 435 m 1
 469 350 l 1
 555 350 l 1
 555 435 l 1
 469 435 l 1
469 264 m 1
 469 179 l 1
 555 179 l 1
 555 264 l 1
 469 264 l 1
EndSplineSet
EndChar

StartChar: 9
Encoding: 57 57 10
Width: 1024
Flags: HW
LayerCount: 2
Fore
SplineSet
555 94 m 2
 384 94 l 1
 384 179 l 1
 555 179 l 1
 555 264 l 1
 469 264 l 2
 422 264 384 303 384 350 c 2
 384 435 l 2
 384 482 422 520 469 520 c 2
 555 520 l 2
 602 520 640 482 640 435 c 2
 640 179 l 2
 640 132 602 94 555 94 c 2
555 350 m 1
 555 435 l 1
 469 435 l 1
 469 350 l 1
 555 350 l 1
EndSplineSet
EndChar

StartChar: at
Encoding: 64 64 11
Width: 1024
Flags: HW
LayerCount: 2
Fore
SplineSet
384 307 m 0
 384 237 444 179 512 179 c 0
 580 179 640 237 640 307 c 0
 640 377 582 435 512 435 c 0
 442 435 384 377 384 307 c 0
790 179 m 0
 826 179 853 210 853 245 c 2
 853 307 l 2
 853 400 820 481 753 548 c 0
 693 610 610 648 517 648 c 0
 515 648 514 648 512 648 c 0
 419 648 338 615 271 548 c 0
 209 488 171 405 171 312 c 0
 171 310 171 309 171 307 c 0
 171 214 204 133 271 66 c 0
 331 4 414 -34 507 -34 c 0
 509 -34 510 -34 512 -34 c 2
 725 -34 l 1
 725 -120 l 1
 512 -120 l 2
 395 -120 294 -77 211 6 c 0
 133 81 85 186 85 302 c 0
 85 304 85 305 85 307 c 0
 85 424 128 525 211 608 c 0
 286 686 391 734 507 734 c 0
 509 734 510 734 512 734 c 0
 629 734 730 691 813 608 c 0
 891 533 939 428 939 312 c 0
 939 310 939 309 939 307 c 2
 939 245 l 2
 939 202 924 166 896 136 c 0
 866 107 832 94 789 94 c 0
 738 94 696 115 664 158 c 1
 621 115 571 94 512 94 c 0
 397 94 299 187 299 305 c 0
 299 306 299 306 299 307 c 0
 299 422 392 520 510 520 c 0
 511 520 511 520 512 520 c 0
 627 520 725 427 725 309 c 0
 725 308 725 308 725 307 c 2
 725 245 l 2
 725 211 755 179 790 179 c 0
EndSplineSet
EndChar

StartChar: close
Encoding: 120 120 12
Width: 1024
Flags: HW
LayerCount: 2
Fore
SplineSet
811 546 m 1
 572 307 l 1
 811 68 l 1
 751 8 l 1
 512 247 l 1
 273 8 l 1
 213 68 l 1
 452 307 l 1
 213 546 l 1
 273 606 l 1
 512 367 l 1
 751 606 l 1
 811 546 l 1
EndSplineSet
EndChar

StartChar: copyright
Encoding: 169 169 13
Width: 1024
Flags: HW
LayerCount: 2
Fore
SplineSet
576 358 m 1
 576 396 546 429 507 429 c 0
 463 428 436 398 430 356 c 0
 422 287 424 185 504 185 c 0
 505 185 505 185 506 185 c 0
 534 185 558 200 569 222 c 0
 573 229 576 237 576 246 c 1
 652 246 l 1
 650 206 632 177 608 158 c 0
 580 135 543 120 503 120 c 0
 455 120 411 140 381 173 c 1
 355 211 340 258 340 307 c 0
 340 357 356 403 382 441 c 0
 434 506 549 513 611 456 c 0
 634 434 652 399 653 358 c 1
 576 358 l 1
512 734 m 0
 747 734 939 542 939 307 c 1
 918 -259 108 -259 85 307 c 1
 85 542 277 734 512 734 c 0
512 -34 m 0
 700 -34 853 119 853 307 c 1
 834 760 190 760 171 307 c 1
 171 119 324 -34 512 -34 c 0
EndSplineSet
EndChar

StartChar: window minimize
Encoding: 256 57344 14
Width: 1024
Flags: HW
LayerCount: 2
Fore
SplineSet
853 222 m 1
 171 222 l 1
 171 392 l 1
 853 392 l 1
 853 222 l 1
EndSplineSet
EndChar

StartChar: window maximize
Encoding: 257 57345 15
Width: 1024
Flags: HW
LayerCount: 2
Fore
SplineSet
171 648 m 1
 853 648 l 1
 853 -34 l 1
 171 -34 l 1
 171 648 l 1
256 478 m 1
 256 51 l 1
 768 51 l 1
 768 478 l 1
 256 478 l 1
EndSplineSet
EndChar

StartChar: window restore
Encoding: 258 57346 16
Width: 1024
Flags: HW
LayerCount: 2
Fore
SplineSet
171 478 m 1
 341 478 l 1
 341 648 l 1
 853 648 l 1
 853 136 l 1
 683 136 l 1
 683 -34 l 1
 171 -34 l 1
 171 478 l 1
683 478 m 1
 683 222 l 1
 768 222 l 1
 768 563 l 1
 427 563 l 1
 427 478 l 1
 683 478 l 1
256 307 m 1
 256 51 l 1
 597 51 l 1
 597 307 l 1
 256 307 l 1
EndSplineSet
EndChar

StartChar: window close
Encoding: 259 57347 17
Width: 1024
Flags: HW
LayerCount: 2
Fore
SplineSet
574 307 m 1
 811 71 l 1
 811 8 l 1
 748 8 l 1
 512 245 l 1
 276 8 l 1
 213 8 l 1
 213 71 l 1
 450 307 l 1
 213 543 l 1
 213 606 l 1
 276 606 l 1
 512 369 l 1
 748 606 l 1
 811 606 l 1
 811 543 l 1
 574 307 l 1
EndSplineSet
EndChar

StartChar: minus
Encoding: 260 57348 18
Width: 1024
Flags: HW
LayerCount: 2
Fore
SplineSet
811 264 m 1
 213 264 l 1
 213 350 l 1
 811 350 l 1
 811 264 l 1
EndSplineSet
EndChar

StartChar: plus thick
Encoding: 261 57349 19
Width: 1024
Flags: HW
LayerCount: 2
Fore
SplineSet
853 222 m 1
 597 222 l 1
 597 -34 l 1
 427 -34 l 1
 427 222 l 1
 171 222 l 1
 171 392 l 1
 427 392 l 1
 427 648 l 1
 597 648 l 1
 597 392 l 1
 853 392 l 1
 853 222 l 1
EndSplineSet
EndChar

StartChar: check
Encoding: 262 57351 20
Width: 1024
Flags: HW
LayerCount: 2
Fore
SplineSet
896 520 m 1
 384 8 l 1
 149 243 l 1
 209 303 l 1
 384 129 l 1
 836 580 l 1
 896 520 l 1
EndSplineSet
EndChar

StartChar: check bold
Encoding: 263 57352 21
Width: 1024
Flags: HW
LayerCount: 2
Fore
SplineSet
384 -52 m 1
 119 213 l 1
 240 333 l 1
 384 189 l 1
 806 611 l 1
 926 490 l 1
 384 -52 l 1
EndSplineSet
EndChar

StartChar: check all
Encoding: 264 57353 22
Width: 1024
Flags: HW
LayerCount: 2
Fore
SplineSet
17 247 m 1
 78 307 l 1
 316 69 l 1
 256 8 l 1
 17 247 l 1
949 581 m 1
 1009 520 l 1
 497 8 l 1
 259 247 l 1
 320 307 l 1
 497 129 l 1
 949 581 l 1
768 520 m 1
 497 250 l 1
 437 310 l 1
 708 581 l 1
 768 520 l 1
EndSplineSet
EndChar

StartChar: sync
Encoding: 265 57355 23
Width: 1024
Flags: HW
LayerCount: 2
Fore
SplineSet
512 51 m 1
 512 179 l 1
 683 8 l 1
 512 -162 l 1
 512 -34 l 1
 324 -34 171 119 171 307 c 1
 171 307 l 1
 171 374 191 437 224 489 c 1
 286 426 l 1
 267 391 256 350 256 307 c 0
 256 166 371 51 512 51 c 1
512 648 m 1
 700 648 853 495 853 307 c 1
 853 307 l 1
 853 240 833 177 800 125 c 1
 738 188 l 1
 757 223 768 264 768 307 c 0
 768 448 653 563 512 563 c 1
 512 435 l 1
 341 606 l 1
 512 776 l 1
 512 648 l 1
EndSplineSet
EndChar

StartChar: reload
Encoding: 266 57356 24
Width: 1024
Flags: HW
LayerCount: 2
Fore
SplineSet
85 307 m 0
 85 519 257 691 469 691 c 0
 681 691 853 519 853 307 c 1
 981 307 l 1
 815 136 l 1
 811 136 l 1
 640 307 l 1
 768 307 l 1
 768 472 634 606 469 606 c 0
 304 606 171 472 171 307 c 0
 171 142 304 8 469 8 c 0
 471 8 l 0
 553 8 626 43 678 98 c 1
 742 34 l 1
 669 -37 571 -77 469 -77 c 0
 257 -77 85 95 85 307 c 0
EndSplineSet
EndChar

StartChar: settings helper
Encoding: 267 57357 25
Width: 1024
Flags: HW
LayerCount: 2
Fore
SplineSet
299 -120 m 1
 384 -120 l 1
 384 -205 l 1
 299 -205 l 1
 299 -120 l 1
469 -120 m 1
 555 -120 l 1
 555 -205 l 1
 469 -205 l 1
 469 -120 l 1
640 -120 m 1
 725 -120 l 1
 725 -205 l 1
 640 -205 l 1
 640 -120 l 1
EndSplineSet
EndChar

StartChar: cog
Encoding: 268 57358 26
Width: 1024
Flags: HW
LayerCount: 2
Fore
SplineSet
512 158 m 0
 594 158 661 225 661 307 c 0
 661 389 594 456 512 456 c 0
 430 456 363 389 363 307 c 0
 363 225 430 158 512 158 c 0
829 266 m 1
 919 195 l 2
 924 191 927 185 927 178 c 0
 927 174 926 170 924 167 c 2
 839 20 l 2
 835 14 828 9 820 9 c 0
 817 9 815 9 813 10 c 2
 707 54 l 1
 685 37 660 22 634 11 c 1
 619 -102 l 2
 617 -112 609 -120 598 -120 c 0
 597 -120 l 2
 427 -120 l 2
 426 -120 l 0
 415 -120 407 -112 405 -102 c 2
 390 11 l 1
 363 22 339 37 317 54 c 1
 211 10 l 2
 202 7 190 11 185 20 c 2
 100 167 l 2
 98 170 97 174 97 178 c 0
 97 185 100 191 105 195 c 2
 195 266 l 1
 193 280 192 293 192 307 c 0
 192 321 193 336 195 350 c 1
 105 419 l 2
 100 423 97 429 97 436 c 0
 97 440 98 444 100 447 c 2
 185 594 l 2
 189 600 196 605 204 605 c 0
 207 605 209 605 211 604 c 2
 317 561 l 1
 339 578 363 592 390 603 c 1
 405 716 l 2
 407 726 415 734 426 734 c 0
 427 734 l 2
 597 734 l 2
 598 734 l 0
 609 734 617 726 619 716 c 2
 634 603 l 1
 660 592 685 578 707 561 c 1
 813 604 l 2
 822 608 834 603 839 594 c 2
 924 447 l 2
 926 444 927 440 927 436 c 0
 927 429 924 423 919 419 c 2
 829 350 l 1
 831 336 832 322 832 308 c 0
 832 294 831 280 829 266 c 1
EndSplineSet
EndChar

StartChar: cog outline
Encoding: 269 57359 27
Width: 1024
Flags: HW
LayerCount: 2
Fore
SplineSet
512 478 m 0
 606 478 683 401 683 307 c 0
 683 213 606 136 512 136 c 0
 418 136 341 213 341 307 c 0
 341 401 418 478 512 478 c 0
512 392 m 0
 465 392 427 354 427 307 c 0
 427 260 465 222 512 222 c 0
 559 222 597 260 597 307 c 0
 597 354 559 392 512 392 c 0
427 -120 m 2
 416 -120 407 -112 405 -102 c 2
 390 11 l 1
 363 22 339 37 317 54 c 1
 211 10 l 2
 202 7 190 11 185 20 c 2
 100 167 l 2
 94 176 97 189 105 195 c 2
 195 266 l 1
 192 307 l 1
 195 350 l 1
 105 419 l 2
 97 425 94 438 100 447 c 2
 185 594 l 2
 190 603 202 608 211 604 c 2
 317 561 l 1
 339 578 363 592 390 603 c 1
 405 716 l 2
 407 726 416 734 427 734 c 2
 597 734 l 2
 608 734 617 726 619 716 c 2
 634 603 l 1
 661 592 685 578 707 561 c 1
 813 604 l 2
 822 608 834 603 839 594 c 2
 924 447 l 2
 930 438 927 425 919 419 c 2
 829 350 l 1
 832 307 l 1
 829 264 l 1
 919 195 l 2
 927 189 930 176 924 167 c 2
 839 20 l 2
 834 11 822 6 813 10 c 2
 707 53 l 1
 685 36 661 22 634 11 c 1
 619 -102 l 2
 617 -112 608 -120 597 -120 c 2
 427 -120 l 2
480 648 m 1
 464 537 l 1
 413 526 368 499 335 461 c 1
 232 505 l 1
 200 450 l 1
 290 384 l 1
 273 334 273 279 290 230 c 1
 200 164 l 1
 232 108 l 1
 335 153 l 1
 368 115 413 87 464 77 c 1
 480 -34 l 1
 544 -34 l 1
 560 77 l 1
 611 88 656 115 689 153 c 1
 792 108 l 1
 824 164 l 1
 734 230 l 1
 751 280 751 334 734 384 c 1
 824 450 l 1
 792 505 l 1
 689 461 l 1
 656 499 611 527 560 537 c 1
 544 648 l 1
 480 648 l 1
EndSplineSet
EndChar

StartChar: clipboard
Encoding: 270 57360 28
Width: 1024
Flags: HW
LayerCount: 2
Fore
SplineSet
811 691 m 2
 858 691 896 653 896 606 c 2
 896 8 l 2
 896 -39 858 -77 811 -77 c 2
 213 -77 l 2
 166 -77 128 -39 128 8 c 2
 128 606 l 2
 128 653 166 691 213 691 c 2
 393 691 l 1
 410 742 457 776 512 776 c 0
 567 776 614 742 631 691 c 1
 811 691 l 2
512 691 m 0
 486 691 469 674 469 648 c 0
 469 622 486 606 512 606 c 0
 538 606 555 622 555 648 c 0
 555 674 538 691 512 691 c 1024
EndSplineSet
EndChar

StartChar: clipboard check
Encoding: 271 57361 29
Width: 1024
Flags: HW
LayerCount: 2
Fore
SplineSet
427 94 m 1
 768 435 l 1
 708 496 l 1
 427 214 l 1
 316 324 l 1
 256 264 l 1
 427 94 l 1
512 691 m 0
 488 691 469 672 469 648 c 0
 469 624 488 606 512 606 c 0
 536 606 555 624 555 648 c 0
 555 672 536 691 512 691 c 0
811 691 m 2
 858 691 896 653 896 606 c 2
 896 8 l 2
 896 -39 858 -77 811 -77 c 2
 213 -77 l 2
 166 -77 128 -39 128 8 c 2
 128 606 l 2
 128 653 166 691 213 691 c 2
 392 691 l 1
 410 740 457 776 512 776 c 0
 567 776 614 741 632 691 c 1
 811 691 l 2
EndSplineSet
EndChar

StartChar: clipboard alert
Encoding: 272 57362 30
Width: 1024
Flags: HW
LayerCount: 2
Fore
SplineSet
512 606 m 0
 536 606 555 624 555 648 c 0
 555 672 536 691 512 691 c 0
 488 691 469 672 469 648 c 0
 469 624 488 606 512 606 c 0
555 222 m 1
 555 478 l 1
 469 478 l 1
 469 222 l 1
 555 222 l 1
555 51 m 1
 555 136 l 1
 469 136 l 1
 469 51 l 1
 555 51 l 1
811 691 m 2
 858 691 896 653 896 606 c 2
 896 8 l 2
 896 -39 858 -77 811 -77 c 2
 213 -77 l 2
 166 -77 128 -39 128 8 c 2
 128 606 l 2
 128 653 166 691 213 691 c 2
 392 691 l 1
 410 740 457 776 512 776 c 0
 567 776 614 741 632 691 c 1
 811 691 l 2
EndSplineSet
EndChar

StartChar: clipboard minus
Encoding: 273 57363 31
Width: 1024
Flags: HW
LayerCount: 2
Fore
SplineSet
811 691 m 2
 858 691 896 653 896 606 c 2
 896 8 l 2
 896 -39 858 -77 811 -77 c 2
 213 -77 l 2
 166 -77 128 -39 128 8 c 2
 128 606 l 2
 128 653 166 691 213 691 c 2
 392 691 l 1
 410 740 457 776 512 776 c 0
 567 776 614 740 632 691 c 1
 811 691 l 2
512 691 m 0
 489 691 469 671 469 648 c 0
 469 625 489 606 512 606 c 0
 535 606 555 625 555 648 c 0
 555 671 535 691 512 691 c 0
683 222 m 1
 683 307 l 1
 341 307 l 1
 341 222 l 1
 683 222 l 1
EndSplineSet
EndChar

StartChar: clipboard plus
Encoding: 274 57364 32
Width: 1024
Flags: HW
LayerCount: 2
Fore
SplineSet
811 691 m 2
 858 691 896 653 896 606 c 2
 896 8 l 2
 896 -39 858 -77 811 -77 c 2
 213 -77 l 2
 166 -77 128 -39 128 8 c 2
 128 606 l 2
 128 653 166 691 213 691 c 2
 392 691 l 1
 410 740 457 776 512 776 c 0
 567 776 614 741 632 691 c 1
 811 691 l 2
512 691 m 0
 488 691 469 672 469 648 c 0
 469 624 488 606 512 606 c 0
 536 606 555 624 555 648 c 0
 555 672 536 691 512 691 c 0
555 307 m 1
 555 435 l 1
 469 435 l 1
 469 307 l 1
 341 307 l 1
 341 222 l 1
 469 222 l 1
 469 94 l 1
 555 94 l 1
 555 222 l 1
 683 222 l 1
 683 307 l 1
 555 307 l 1
EndSplineSet
EndChar

StartChar: clipboard remove
Encoding: 275 57365 33
Width: 1024
Flags: HW
LayerCount: 2
Fore
SplineSet
811 691 m 2
 858 691 896 653 896 606 c 2
 896 8 l 2
 896 -39 858 -77 811 -77 c 2
 213 -77 l 2
 166 -77 128 -39 128 8 c 2
 128 606 l 2
 128 653 166 691 213 691 c 2
 392 691 l 1
 410 740 457 776 512 776 c 0
 567 776 614 740 632 691 c 1
 811 691 l 2
512 691 m 0
 489 691 469 671 469 648 c 0
 469 625 489 606 512 606 c 0
 535 606 555 625 555 648 c 0
 555 671 535 691 512 691 c 0
663 174 m 1
 572 264 l 1
 663 355 l 1
 602 415 l 1
 512 324 l 1
 422 415 l 1
 361 355 l 1
 452 264 l 1
 361 174 l 1
 422 113 l 1
 512 204 l 1
 602 113 l 1
 663 174 l 1
EndSplineSet
EndChar

StartChar: clipboard off
Encoding: 276 57366 34
Width: 1024
Flags: HW
LayerCount: 2
Fore
SplineSet
896 606 m 2
 896 60 l 1
 265 691 l 1
 392 691 l 1
 410 740 457 776 512 776 c 0
 567 776 614 740 632 691 c 1
 811 691 l 2
 858 691 896 653 896 606 c 2
512 606 m 0
 535 606 555 625 555 648 c 0
 555 671 535 691 512 691 c 0
 489 691 469 671 469 648 c 0
 469 625 489 606 512 606 c 0
943 -97 m 1
 889 -151 l 1
 815 -77 l 1
 213 -77 l 2
 166 -77 128 -39 128 8 c 2
 128 610 l 1
 47 691 l 1
 102 745 l 1
 943 -97 l 1
EndSplineSet
EndChar

StartChar: clipboard multiple
Encoding: 277 57367 35
Width: 1024
Flags: HW
LayerCount: 2
Fore
SplineSet
171 520 m 1
 171 -77 l 1
 768 -77 l 1
 768 -162 l 1
 171 -162 l 2
 124 -162 85 -124 85 -77 c 2
 85 520 l 1
 171 520 l 1
853 691 m 2
 900 691 939 653 939 606 c 2
 939 94 l 2
 939 47 900 8 853 8 c 2
 341 8 l 2
 294 8 256 47 256 94 c 2
 256 606 l 2
 256 653 294 691 341 691 c 2
 478 691 l 1
 495 742 542 776 597 776 c 0
 652 776 700 742 717 691 c 1
 853 691 l 2
597 691 m 0
 571 691 555 669 555 648 c 0
 555 627 576 606 597 606 c 0
 618 606 640 627 640 648 c 0
 640 669 623 691 597 691 c 0
EndSplineSet
EndChar

StartChar: clipboard edit
Encoding: 278 57368 36
Width: 1024
Flags: HW
LayerCount: 2
Fore
SplineSet
898 301 m 0
 904 301 909 299 914 294 c 2
 969 240 l 2
 978 231 978 216 969 207 c 2
 926 164 l 1
 838 252 l 1
 881 294 l 2
 885 298 891 301 898 301 c 0
814 227 m 1
 901 139 l 1
 643 -120 l 1
 555 -120 l 1
 555 -32 l 1
 814 227 l 1
811 691 m 2
 858 691 896 653 896 606 c 2
 896 435 l 1
 469 8 l 1
 469 -77 l 1
 213 -77 l 2
 166 -77 128 -39 128 8 c 2
 128 606 l 2
 128 653 166 691 213 691 c 2
 392 691 l 1
 410 740 457 776 512 776 c 0
 567 776 614 740 632 691 c 1
 811 691 l 2
512 691 m 0
 488 691 469 672 469 648 c 0
 469 624 488 606 512 606 c 0
 536 606 555 624 555 648 c 0
 555 672 536 691 512 691 c 0
EndSplineSet
EndChar

StartChar: clipboard outline
Encoding: 279 57376 37
Width: 1024
Flags: HW
LayerCount: 2
Fore
SplineSet
811 691 m 2
 858 691 896 653 896 606 c 2
 896 8 l 2
 896 -39 858 -77 811 -77 c 2
 213 -77 l 2
 166 -77 128 -39 128 8 c 2
 128 606 l 2
 128 653 166 691 213 691 c 2
 392 691 l 1
 410 740 457 776 512 776 c 0
 567 776 614 741 632 691 c 1
 811 691 l 2
512 691 m 0
 488 691 469 672 469 648 c 0
 469 624 488 606 512 606 c 0
 536 606 555 624 555 648 c 0
 555 672 536 691 512 691 c 0
299 520 m 1
 299 606 l 1
 213 606 l 1
 213 8 l 1
 811 8 l 1
 811 606 l 1
 725 606 l 1
 725 520 l 1
 299 520 l 1
EndSplineSet
EndChar

StartChar: clipboard check outline
Encoding: 280 57377 38
Width: 1024
Flags: HW
LayerCount: 2
Fore
SplineSet
811 691 m 2
 858 691 896 653 896 606 c 2
 896 8 l 2
 896 -39 858 -77 811 -77 c 2
 213 -77 l 2
 166 -77 128 -39 128 8 c 2
 128 606 l 2
 128 653 166 691 213 691 c 2
 392 691 l 1
 410 740 457 776 512 776 c 0
 567 776 614 741 632 691 c 1
 811 691 l 2
512 691 m 0
 488 691 469 672 469 648 c 0
 469 624 488 606 512 606 c 0
 536 606 555 624 555 648 c 0
 555 672 536 691 512 691 c 0
299 520 m 1
 299 606 l 1
 213 606 l 1
 213 8 l 1
 811 8 l 1
 811 606 l 1
 725 606 l 1
 725 520 l 1
 299 520 l 1
320 243 m 1
 384 307 l 1
 469 222 l 1
 661 414 l 1
 725 350 l 1
 469 94 l 1
 320 243 l 1
EndSplineSet
EndChar

StartChar: clipboard alert outline
Encoding: 281 57378 39
Width: 1024
Flags: HW
LayerCount: 2
Fore
SplineSet
811 691 m 2
 858 691 896 653 896 606 c 2
 896 8 l 2
 896 -39 858 -77 811 -77 c 2
 213 -77 l 2
 166 -77 128 -39 128 8 c 2
 128 606 l 2
 128 653 166 691 213 691 c 2
 392 691 l 1
 410 740 457 776 512 776 c 0
 567 776 614 740 632 691 c 1
 811 691 l 2
512 691 m 0
 488 691 469 672 469 648 c 0
 469 624 488 606 512 606 c 0
 536 606 555 624 555 648 c 0
 555 672 536 691 512 691 c 0
299 520 m 1
 299 606 l 1
 213 606 l 1
 213 8 l 1
 811 8 l 1
 811 606 l 1
 725 606 l 1
 725 520 l 1
 299 520 l 1
469 435 m 1
 555 435 l 1
 555 243 l 1
 469 243 l 1
 469 435 l 1
469 179 m 1
 555 179 l 1
 555 94 l 1
 469 94 l 1
 469 179 l 1
EndSplineSet
EndChar

StartChar: clipboard minus outline
Encoding: 282 57379 40
Width: 1024
Flags: HW
LayerCount: 2
Fore
SplineSet
811 691 m 2
 858 691 896 653 896 606 c 2
 896 8 l 2
 896 -39 858 -77 811 -77 c 2
 213 -77 l 2
 166 -77 128 -39 128 8 c 2
 128 606 l 2
 128 653 166 691 213 691 c 2
 392 691 l 1
 410 740 457 776 512 776 c 0
 567 776 614 740 632 691 c 1
 811 691 l 2
512 691 m 0
 489 691 469 671 469 648 c 0
 469 625 489 606 512 606 c 0
 535 606 555 625 555 648 c 0
 555 671 535 691 512 691 c 0
811 8 m 1
 811 606 l 1
 725 606 l 1
 725 520 l 1
 299 520 l 1
 299 606 l 1
 213 606 l 1
 213 8 l 1
 811 8 l 1
341 307 m 1
 683 307 l 1
 683 222 l 1
 341 222 l 1
 341 307 l 1
EndSplineSet
EndChar

StartChar: clipboard plus outline
Encoding: 283 57380 41
Width: 1024
Flags: HW
LayerCount: 2
Fore
SplineSet
811 691 m 2
 858 691 896 653 896 606 c 2
 896 8 l 2
 896 -39 858 -77 811 -77 c 2
 213 -77 l 2
 166 -77 128 -39 128 8 c 2
 128 606 l 2
 128 653 166 691 213 691 c 2
 392 691 l 1
 410 740 457 776 512 776 c 0
 567 776 614 740 632 691 c 1
 811 691 l 2
512 691 m 0
 489 691 469 671 469 648 c 0
 469 625 489 606 512 606 c 0
 535 606 555 625 555 648 c 0
 555 671 535 691 512 691 c 0
299 520 m 1
 299 606 l 1
 213 606 l 1
 213 8 l 1
 811 8 l 1
 811 606 l 1
 725 606 l 1
 725 520 l 1
 299 520 l 1
555 307 m 1
 683 307 l 1
 683 222 l 1
 555 222 l 1
 555 94 l 1
 469 94 l 1
 469 222 l 1
 341 222 l 1
 341 307 l 1
 469 307 l 1
 469 435 l 1
 555 435 l 1
 555 307 l 1
EndSplineSet
EndChar

StartChar: clipboard remove outline
Encoding: 284 57381 42
Width: 1024
Flags: HW
LayerCount: 2
Fore
SplineSet
811 691 m 2
 858 691 896 653 896 606 c 2
 896 8 l 2
 896 -39 858 -77 811 -77 c 2
 213 -77 l 2
 166 -77 128 -39 128 8 c 2
 128 606 l 2
 128 653 166 691 213 691 c 2
 392 691 l 1
 410 740 457 776 512 776 c 0
 567 776 614 740 632 691 c 1
 811 691 l 2
512 691 m 0
 489 691 469 671 469 648 c 0
 469 625 489 606 512 606 c 0
 535 606 555 625 555 648 c 0
 555 671 535 691 512 691 c 0
811 8 m 1
 811 606 l 1
 725 606 l 1
 725 520 l 1
 299 520 l 1
 299 606 l 1
 213 606 l 1
 213 8 l 1
 811 8 l 1
663 355 m 1
 572 264 l 1
 663 174 l 1
 602 113 l 1
 512 204 l 1
 422 113 l 1
 361 174 l 1
 452 264 l 1
 361 355 l 1
 422 415 l 1
 512 324 l 1
 602 415 l 1
 663 355 l 1
EndSplineSet
EndChar

StartChar: clipboard off outline
Encoding: 285 57382 43
Width: 1024
Flags: HW
LayerCount: 2
Fore
SplineSet
102 745 m 1
 943 -97 l 1
 889 -151 l 1
 815 -77 l 1
 213 -77 l 2
 166 -77 128 -39 128 8 c 2
 128 610 l 1
 47 691 l 1
 102 745 l 1
213 8 m 1
 730 8 l 1
 213 525 l 1
 213 8 l 1
725 520 m 1
 435 520 l 1
 265 691 l 1
 392 691 l 1
 410 740 457 776 512 776 c 0
 567 776 614 740 632 691 c 1
 811 691 l 2
 858 691 896 653 896 606 c 2
 896 60 l 1
 811 145 l 1
 811 606 l 1
 725 606 l 1
 725 520 l 1
512 691 m 0
 489 691 469 671 469 648 c 0
 469 625 489 606 512 606 c 0
 535 606 555 625 555 648 c 0
 555 671 535 691 512 691 c 0
EndSplineSet
EndChar

StartChar: clipboard multiple outline
Encoding: 286 57383 44
Width: 1024
Flags: HW
LayerCount: 2
Fore
SplineSet
171 520 m 1
 171 -77 l 1
 768 -77 l 1
 768 -162 l 1
 171 -162 l 2
 124 -162 85 -124 85 -77 c 2
 85 520 l 1
 171 520 l 1
853 691 m 2
 900 691 939 653 939 606 c 2
 939 94 l 2
 939 47 900 8 853 8 c 2
 341 8 l 2
 294 8 256 47 256 94 c 2
 256 606 l 2
 256 653 294 691 341 691 c 2
 477 691 l 1
 495 740 542 776 597 776 c 0
 652 776 700 740 718 691 c 1
 853 691 l 2
597 691 m 0
 573 691 555 672 555 648 c 0
 555 624 573 606 597 606 c 0
 621 606 640 624 640 648 c 0
 640 672 621 691 597 691 c 0
427 520 m 1
 427 606 l 1
 341 606 l 1
 341 94 l 1
 853 94 l 1
 853 606 l 1
 768 606 l 1
 768 520 l 1
 427 520 l 1
EndSplineSet
EndChar

StartChar: clipboard edit outline
Encoding: 287 57384 45
Width: 1024
Flags: HW
LayerCount: 2
Fore
SplineSet
898 301 m 0
 904 301 909 299 914 294 c 2
 969 240 l 2
 978 231 978 216 969 207 c 2
 926 164 l 1
 838 252 l 1
 881 294 l 2
 885 298 891 301 898 301 c 0
814 227 m 1
 901 139 l 1
 643 -120 l 1
 555 -120 l 1
 555 -32 l 1
 814 227 l 1
469 8 m 1
 384 -77 l 1
 213 -77 l 2
 166 -77 128 -39 128 8 c 2
 128 606 l 2
 128 653 166 691 213 691 c 2
 392 691 l 1
 410 740 457 776 512 776 c 0
 567 776 614 740 632 691 c 1
 811 691 l 2
 858 691 896 653 896 606 c 2
 896 435 l 1
 811 350 l 1
 811 606 l 1
 725 606 l 1
 725 520 l 1
 299 520 l 1
 299 606 l 1
 213 606 l 1
 213 8 l 1
 469 8 l 1
512 691 m 0
 488 691 469 672 469 648 c 0
 469 624 488 606 512 606 c 0
 536 606 555 624 555 648 c 0
 555 672 536 691 512 691 c 0
EndSplineSet
EndChar

StartChar: wifi
Encoding: 288 57392 46
Width: 1024
Flags: HW
LayerCount: 2
Fore
SplineSet
512 -77 m 1
 358 128 l 1
 401 160 454 179 512 179 c 0
 570 179 623 160 666 128 c 1
 512 -77 l 1
512 691 m 0
 514 691 l 0
 686 691 845 633 973 537 c 1
 896 435 l 1
 789 515 656 563 512 563 c 0
 368 563 235 515 128 435 c 1
 51 537 l 1
 179 633 339 691 512 691 c 0
512 435 m 0
 513 435 l 0
 628 435 734 397 819 333 c 1
 742 230 l 1
 678 278 598 307 512 307 c 0
 426 307 346 278 282 230 c 1
 205 333 l 1
 291 397 397 435 512 435 c 0
EndSplineSet
EndChar

StartChar: bluetooth
Encoding: 289 57393 47
Width: 1024
Flags: HW
LayerCount: 2
Fore
SplineSet
635 124 m 1
 555 204 l 1
 555 44 l 1
 635 124 l 1
555 570 m 1
 555 410 l 1
 635 490 l 1
 555 570 l 1
756 490 m 1
 572 307 l 1
 756 124 l 1
 512 -120 l 1
 469 -120 l 1
 469 204 l 1
 273 8 l 1
 213 69 l 1
 452 307 l 1
 213 546 l 1
 273 606 l 1
 469 410 l 1
 469 734 l 1
 512 734 l 1
 756 490 l 1
EndSplineSet
EndChar

StartChar: wifi off
Encoding: 290 57394 48
Width: 1024
Flags: HW
LayerCount: 2
Fore
SplineSet
97 691 m 1
 811 -22 l 1
 757 -77 l 1
 617 63 l 1
 512 -77 l 1
 358 128 l 1
 398 158 448 176 501 179 c 1
 393 287 l 1
 353 274 315 255 282 230 c 1
 205 333 l 1
 232 354 262 371 294 386 c 1
 199 481 l 1
 174 467 151 452 128 435 c 1
 51 537 l 1
 68 550 87 563 105 574 c 1
 43 637 l 1
 97 691 l 1
512 691 m 0
 685 691 845 633 973 537 c 1
 896 435 l 1
 789 516 656 563 512 563 c 0
 457 563 406 556 354 543 c 1
 252 645 l 1
 333 674 420 691 512 691 c 0
512 435 m 0
 627 435 734 397 819 333 c 1
 742 230 l 1
 701 261 652 284 600 296 c 1
 464 433 l 1
 480 435 496 435 512 435 c 0
EndSplineSet
EndChar

StartChar: bluetooth off
Encoding: 291 57395 49
Width: 1024
Flags: HW
LayerCount: 2
Fore
SplineSet
555 572 m 1
 555 435 l 1
 469 520 l 1
 469 734 l 1
 512 734 l 1
 755 490 l 1
 627 362 l 1
 567 422 l 1
 636 490 l 1
 555 572 l 1
230 648 m 1
 853 25 l 1
 794 -34 l 1
 695 64 l 1
 512 -120 l 1
 469 -120 l 1
 469 205 l 1
 273 8 l 1
 213 68 l 1
 452 307 l 1
 171 589 l 1
 230 648 l 1
555 42 m 1
 636 124 l 1
 555 205 l 1
 555 42 l 1
EndSplineSet
EndChar

StartChar: volume low
Encoding: 292 57400 50
Width: 1024
Flags: HW
LayerCount: 2
Fore
SplineSet
299 435 m 1
 469 435 l 1
 683 648 l 1
 683 -34 l 1
 469 179 l 1
 299 179 l 1
 299 435 l 1
EndSplineSet
EndChar

StartChar: volume medium
Encoding: 293 57401 51
Width: 1024
Flags: HW
LayerCount: 2
Fore
SplineSet
213 435 m 1
 384 435 l 1
 597 648 l 1
 597 -34 l 1
 384 179 l 1
 213 179 l 1
 213 435 l 1
789 307 m 0
 790 306 l 0
 790 231 746 166 683 136 c 1
 683 479 l 1
 747 447 789 383 789 307 c 0
EndSplineSet
EndChar

StartChar: volume high
Encoding: 294 57402 52
Width: 1024
Flags: HW
LayerCount: 2
Fore
SplineSet
597 681 m 1
 767 642 895 489 895 307 c 0
 895 125 767 -28 597 -67 c 1
 597 21 l 1
 720 58 810 172 810 307 c 0
 810 442 720 556 597 593 c 1
 597 681 l 1
704 307 m 0
 704 306 l 0
 704 231 660 166 597 136 c 1
 597 479 l 1
 661 447 704 383 704 307 c 0
128 435 m 1
 299 435 l 1
 512 648 l 1
 512 -34 l 1
 299 179 l 1
 128 179 l 1
 128 435 l 1
EndSplineSet
EndChar

StartChar: volume minus
Encoding: 295 57403 53
Width: 1024
Flags: HW
LayerCount: 2
Fore
SplineSet
128 435 m 1
 299 435 l 1
 512 648 l 1
 512 -34 l 1
 299 179 l 1
 128 179 l 1
 128 435 l 1
597 350 m 1
 939 350 l 1
 939 264 l 1
 597 264 l 1
 597 350 l 1
EndSplineSet
EndChar

StartChar: volume plus
Encoding: 296 57404 54
Width: 1024
Flags: HW
LayerCount: 2
Fore
SplineSet
128 435 m 1
 299 435 l 1
 512 648 l 1
 512 -34 l 1
 299 179 l 1
 128 179 l 1
 128 435 l 1
597 350 m 1
 725 350 l 1
 725 478 l 1
 811 478 l 1
 811 350 l 1
 939 350 l 1
 939 264 l 1
 811 264 l 1
 811 136 l 1
 725 136 l 1
 725 264 l 1
 597 264 l 1
 597 350 l 1
EndSplineSet
EndChar

StartChar: volume mute
Encoding: 297 57405 55
Width: 1024
Flags: HW
LayerCount: 2
Fore
SplineSet
128 435 m 1
 299 435 l 1
 512 648 l 1
 512 -34 l 1
 299 179 l 1
 128 179 l 1
 128 435 l 1
708 307 m 1
 597 418 l 1
 657 478 l 1
 768 367 l 1
 879 478 l 1
 939 418 l 1
 828 307 l 1
 939 196 l 1
 879 136 l 1
 768 247 l 1
 657 136 l 1
 597 196 l 1
 708 307 l 1
EndSplineSet
EndChar

StartChar: volume variant off
Encoding: 298 57406 56
Width: 1024
Flags: HW
LayerCount: 2
Fore
SplineSet
241 664 m 1
 911 -7 l 1
 851 -68 l 1
 683 101 l 1
 683 -34 l 1
 469 179 l 1
 299 179 l 1
 299 435 l 1
 349 435 l 1
 180 604 l 1
 241 664 l 1
683 648 m 1
 683 342 l 1
 529 496 l 1
 683 648 l 1
EndSplineSet
EndChar

StartChar: telegram
Encoding: 299 57600 57
Width: 1024
Flags: HW
LayerCount: 2
Fore
SplineSet
0 307 m 0
 0 588 229 819 511 819 c 0
 512 819 l 0
 795 819 1024 590 1024 307 c 0
 1024 24 795 -205 512 -205 c 0
 229 -205 0 24 0 307 c 0
721 511 m 0
 702 511 672 500 530 441 c 0
 431 399 330 356 232 313 c 0
 207 303 195 293 194 284 c 0
 192 266 217 261 249 250 c 0
 274 241 302 234 329 231 c 0
 346 231 364 238 384 252 c 0
 524 346 596 394 600 395 c 0
 603 396 608 397 611 394 c 0
 614 391 614 387 613 385 c 0
 611 374 480 255 472 247 c 0
 443 217 411 198 461 165 c 0
 505 136 530 119 575 89 c 0
 604 70 626 47 656 50 c 0
 670 51 684 65 691 103 c 0
 708 194 741 390 749 471 c 0
 752 495 743 511 721 511 c 0
EndSplineSet
EndChar

StartChar: gmail
Encoding: 300 57601 58
Width: 1024
Flags: HW
LayerCount: 2
Fore
SplineSet
1024 586 m 2
 1024 -7 l 2
 1024 -46 993 -77 954 -77 c 2
 791 -77 l 1
 791 319 l 1
 512 109 l 1
 233 319 l 1
 233 -77 l 1
 70 -77 l 2
 32 -77 0 -45 0 -7 c 2
 0 586 l 2
 0 673 98 722 168 670 c 0
 282 583 397 498 512 412 c 1
 627 498 741 584 856 670 c 0
 874 683 895 691 919 691 c 0
 977 691 1024 645 1024 587 c 0
 1024 586 l 2
EndSplineSet
EndChar

StartChar: linkedin
Encoding: 301 57602 59
Width: 1024
Flags: HW
LayerCount: 2
Fore
SplineSet
873 -54 m 1
 873 214 l 2
 873 346 844 447 690 447 c 0
 688 447 687 448 685 448 c 0
 626 448 575 415 547 368 c 1
 545 368 l 1
 545 435 l 1
 399 435 l 1
 399 -54 l 1
 551 -54 l 1
 551 188 l 2
 551 252 563 313 642 313 c 0
 720 313 721 240 721 184 c 2
 721 -54 l 1
 873 -54 l 1
228 502 m 0
 277 502 316 541 316 590 c 0
 316 639 277 678 228 678 c 0
 179 678 140 639 140 590 c 0
 140 541 179 502 228 502 c 0
304 -54 m 1
 304 435 l 1
 152 435 l 1
 152 -54 l 1
 304 -54 l 1
948 819 m 2
 990 819 1024 786 1024 745 c 2
 1024 -131 l 2
 1024 -172 990 -205 948 -205 c 2
 76 -205 l 2
 35 -205 0 -172 0 -131 c 2
 0 745 l 2
 0 786 34 819 76 819 c 2
 948 819 l 2
EndSplineSet
EndChar

StartChar: instagram
Encoding: 302 57603 60
Width: 1024
Flags: HW
LayerCount: 2
Fore
SplineSet
512 819 m 0
 531 819 546 819 565 819 c 0
 618 819 670 818 723 816 c 0
 777 813 814 805 847 792 c 0
 951 753 1018 655 1021 518 c 0
 1024 463 1024 446 1024 307 c 0
 1024 168 1024 151 1021 96 c 0
 1018 42 1010 5 997 -28 c 0
 958 -132 860 -199 723 -202 c 0
 668 -205 651 -205 512 -205 c 0
 373 -205 356 -205 301 -202 c 0
 247 -199 210 -191 177 -178 c 0
 108 -152 52 -94 27 -28 c 0
 14 4 6 42 3 96 c 0
 0 151 0 168 0 307 c 0
 0 446 0 463 3 518 c 0
 6 572 14 609 27 642 c 0
 40 676 57 705 86 733 c 0
 138 784 209 814 301 816 c 0
 356 819 373 819 512 819 c 0
512 727 m 1
 512 726 l 1
 510 728 l 1
 373 728 357 727 303 725 c 0
 270 724 237 718 208 707 c 0
 135 681 95 610 93 515 c 0
 91 461 90 444 90 307 c 0
 90 171 91 155 93 101 c 0
 95 -32 170 -107 303 -109 c 0
 357 -112 374 -113 511 -113 c 0
 648 -113 664 -112 718 -109 c 0
 768 -107 795 -99 813 -92 c 0
 885 -64 926 4 928 100 c 0
 931 154 932 170 932 307 c 0
 932 444 931 460 928 514 c 0
 926 564 918 591 911 609 c 0
 893 654 859 689 814 706 c 0
 796 713 769 721 719 724 c 0
 665 726 649 727 512 727 c 1
512 570 m 0
 657 570 775 452 775 307 c 0
 775 162 657 44 512 44 c 0
 367 44 249 162 249 307 c 0
 249 452 367 570 512 570 c 0
512 136 m 0
 606 136 683 213 683 307 c 0
 683 401 606 478 512 478 c 0
 418 478 341 401 341 307 c 0
 341 213 418 136 512 136 c 0
847 580 m 0
 847 546 819 518 785 518 c 0
 751 518 724 546 724 580 c 0
 724 614 751 642 785 642 c 0
 819 642 847 614 847 580 c 0
EndSplineSet
EndChar

StartChar: facebook
Encoding: 303 57604 61
Width: 1024
Flags: HW
LayerCount: 2
Fore
SplineSet
1024 304 m 0
 1024 304 l 0
 1024 49 836 -163 592 -202 c 1
 592 156 l 1
 711 156 l 1
 734 304 l 1
 592 304 l 1
 592 400 l 2
 592 441 611 480 675 480 c 2
 740 480 l 1
 740 606 l 1
 740 606 681 616 625 616 c 0
 508 616 432 545 432 417 c 2
 432 304 l 1
 302 304 l 1
 302 156 l 1
 432 156 l 1
 432 -202 l 1
 188 -163 0 49 0 304 c 0
 0 587 229 816 512 816 c 0
 794 816 1024 586 1024 304 c 0
EndSplineSet
EndChar

StartChar: discord
Encoding: 304 57605 62
Width: 1024
Flags: HW
LayerCount: 2
Fore
SplineSet
867 633 m 0
 868 633 868 632 868 631 c 0
 984 461 1041 269 1020 48 c 0
 1020 47 1019 46 1018 46 c 0
 931 -18 846 -57 762 -83 c 0
 761 -83 l 0
 760 -83 760 -83 759 -82 c 0
 740 -55 721 -27 706 3 c 0
 706 4 l 0
 706 5 707 6 708 7 c 0
 736 18 763 31 788 46 c 0
 789 47 789 47 789 48 c 0
 789 49 789 50 788 51 c 2
 772 64 l 2
 772 64 772 64 771 64 c 0
 770 64 769 64 769 64 c 0
 691 27 603 7 511 7 c 0
 419 7 332 27 254 64 c 0
 254 64 254 64 253 64 c 0
 252 64 251 64 251 64 c 2
 236 51 l 2
 235 50 234 49 234 48 c 0
 234 47 235 47 236 46 c 0
 261 31 287 18 315 7 c 0
 316 6 317 5 317 4 c 0
 317 3 l 0
 302 -27 285 -55 265 -82 c 0
 264 -83 264 -83 263 -83 c 0
 262 -83 l 0
 169 -54 82 -10 6 46 c 0
 5 47 4 47 4 48 c 0
 1 77 0 107 0 137 c 0
 0 321 57 491 155 631 c 0
 155 632 156 633 157 633 c 0
 222 663 292 684 365 697 c 0
 366 698 l 0
 367 698 368 697 369 696 c 0
 378 680 388 659 395 642 c 1
 434 648 471 651 511 651 c 0
 551 651 590 648 629 642 c 1
 636 658 646 680 655 696 c 0
 655 697 657 697 658 697 c 0
 658 697 l 0
 731 684 802 663 867 633 c 0
342 165 m 0
 393 165 434 211 434 268 c 0
 435 324 394 371 342 371 c 0
 291 371 250 325 250 268 c 0
 250 211 292 165 342 165 c 0
682 165 m 0
 734 165 774 211 774 268 c 0
 775 324 734 371 682 371 c 0
 631 371 591 325 591 268 c 0
 591 211 632 165 682 165 c 0
EndSplineSet
EndChar

StartChar: twitter
Encoding: 305 57606 63
Width: 1024
Flags: HW
LayerCount: 2
Fore
SplineSet
1024 623 m 1
 994 580 960 546 917 516 c 1
 947 72 448 -290 4 -13 c 1
 115 -26 231 4 316 72 c 1
 226 72 145 132 119 217 c 1
 149 213 183 213 213 222 c 1
 111 243 43 329 43 431 c 1
 69 414 103 405 137 405 c 1
 47 460 13 593 77 678 c 1
 184 550 337 470 508 461 c 1
 461 666 721 807 866 653 c 1
 913 662 955 678 998 704 c 1
 981 657 948 615 905 589 c 1
 947 594 987 606 1024 623 c 1
EndSplineSet
EndChar

StartChar: windows
Encoding: 306 57632 64
Width: 1024
Flags: HW
LayerCount: 2
Fore
SplineSet
0 672 m 1
 416 729 l 1
 416 326 l 1
 0 326 l 1
 0 672 l 1
467 736 m 1
 1024 819 l 1
 1024 333 l 1
 467 333 l 1
 467 736 l 1
0 281 m 1
 416 281 l 1
 416 -122 l 1
 0 -64 l 1
 0 281 l 1
467 281 m 1
 1024 281 l 1
 1024 -205 l 1
 474 -128 l 1
 467 281 l 1
EndSplineSet
EndChar

StartChar: windows11
Encoding: 307 57633 65
Width: 1024
Flags: HW
LayerCount: 2
Fore
SplineSet
0 819 m 1
 486 819 l 1
 486 334 l 1
 0 334 l 1
 0 819 l 1
538 819 m 1
 1024 819 l 1
 1024 334 l 1
 538 334 l 1
 538 819 l 1
0 281 m 1
 486 281 l 1
 486 -205 l 1
 0 -205 l 1
 0 281 l 1
538 281 m 1
 1024 281 l 1
 1024 -205 l 1
 538 -205 l 1
 538 281 l 1
EndSplineSet
EndChar

StartChar: linux
Encoding: 308 57634 66
Width: 1024
Flags: HW
LayerCount: 2
Fore
SplineSet
533 819 m 2
 695 819 687 648 683 567 c 0
 683 507 717 465 751 422 c 0
 819 337 887 226 849 115 c 1
 853 115 854 111 858 111 c 0
 862 111 866 106 866 106 c 1
 887 85 883 42 900 21 c 1
 900 17 l 1
 921 -9 930 -26 930 -43 c 0
 921 -98 836 -98 802 -145 c 0
 776 -175 742 -197 704 -201 c 0
 670 -201 640 -188 623 -154 c 0
 623 -150 619 -145 619 -141 c 1
 576 -145 538 -128 508 -132 c 1
 461 -132 436 -145 410 -145 c 1
 401 -166 379 -184 358 -188 c 0
 328 -197 285 -188 247 -167 c 0
 193 -137 120 -160 90 -115 c 0
 81 -98 85 -81 94 -51 c 0
 98 -38 98 -26 94 -9 c 0
 90 4 89 25 98 38 c 0
 114 71 149 63 171 85 c 0
 180 94 192 111 205 124 c 1
 192 235 265 337 333 422 c 0
 363 460 380 503 380 550 c 0
 380 614 333 802 512 819 c 1
 533 819 l 2
559 674 m 1
 521 678 499 631 508 597 c 1
 533 589 l 1
 524 674 610 627 567 576 c 1
 576 576 584 571 593 567 c 1
 623 601 610 674 559 674 c 1
431 670 m 1
 388 661 388 593 414 567 c 0
 418 567 423 572 427 576 c 1
 389 614 452 670 448 593 c 1
 457 593 460 601 469 601 c 1
 473 627 465 670 431 670 c 1
486 597 m 1
 465 601 444 584 435 567 c 1
 419 559 388 548 397 525 c 0
 401 516 410 504 427 495 c 0
 436 486 444 478 457 478 c 1
 461 474 465 473 469 469 c 0
 473 465 477 465 486 465 c 0
 520 461 537 482 563 495 c 0
 589 508 615 524 606 550 c 1
 606 542 l 1
 602 546 598 555 585 559 c 0
 547 572 516 601 486 597 c 1
606 508 m 1
 597 495 584 482 563 478 c 0
 554 474 546 465 533 461 c 0
 520 452 508 448 491 448 c 2
 486 448 l 2
 469 448 457 452 448 461 c 0
 439 470 431 478 422 482 c 1
 410 490 l 1
 410 413 359 319 333 264 c 1
 320 226 307 184 307 141 c 1
 264 201 294 273 311 307 c 0
 328 345 333 354 329 350 c 0
 303 312 286 273 273 230 c 1
 264 183 273 132 324 102 c 0
 362 81 384 59 401 38 c 0
 414 17 418 0 414 -13 c 0
 414 -17 405 -22 401 -26 c 0
 392 -30 389 -30 380 -30 c 1
 384 -34 388 -38 388 -47 c 1
 397 -51 401 -59 405 -68 c 1
 482 -119 572 -103 636 -56 c 1
 640 -30 649 -9 649 4 c 0
 649 34 653 59 657 85 c 0
 662 106 674 124 691 136 c 1
 695 136 l 1
 695 209 836 154 819 111 c 1
 828 111 l 1
 837 137 820 154 777 175 c 0
 773 175 772 179 768 179 c 1
 781 247 746 320 695 367 c 0
 691 367 691 363 700 354 c 0
 726 333 773 256 747 183 c 1
 738 187 729 188 725 188 c 1
 716 243 691 295 678 316 c 0
 657 359 623 448 606 508 c 1
700 124 m 1
 662 103 670 51 661 4 c 1
 661 -39 623 -112 640 -150 c 0
 670 -218 760 -184 794 -137 c 0
 832 -86 905 -90 922 -43 c 1
 926 -17 879 13 879 51 c 1
 870 85 849 102 815 98 c 1
 777 51 700 51 700 124 c 1
239 124 m 0
 209 120 200 89 179 72 c 0
 145 51 94 51 111 -9 c 0
 128 -56 73 -120 141 -124 c 1
 307 -158 534 -244 329 21 c 1
 312 51 282 128 239 124 c 0
546 512 m 0
 529 503 508 490 482 490 c 0
 461 490 440 503 427 512 c 0
 423 512 397 529 410 533 c 0
 414 533 414 529 418 525 c 0
 422 525 427 521 431 512 c 1
 444 503 461 490 482 490 c 0
 503 490 525 503 546 512 c 1
 572 533 l 2
 576 537 576 546 585 546 c 0
 589 546 584 542 580 533 c 1
 563 524 555 516 546 512 c 0
503 576 m 1
 499 576 l 1
 503 580 508 580 512 580 c 0
 516 580 520 576 516 576 c 1
 516 572 507 572 503 576 c 1
474 580 m 1
 474 576 l 1
 470 576 465 572 461 572 c 0
 444 576 465 584 474 580 c 1
EndSplineSet
EndChar

StartChar: debian
Encoding: 309 57635 67
Width: 1024
Flags: HW
LayerCount: 2
Fore
SplineSet
593 277 m 2
 636 277 l 1
 632 273 623 268 619 264 c 1
 598 268 576 277 593 277 c 2
683 298 m 1
 687 311 657 294 691 341 c 1
 687 328 657 295 691 316 c 1
 695 325 700 332 704 345 c 1
 700 328 687 315 683 298 c 1
717 388 m 1
 713 375 712 397 708 397 c 1
 712 410 717 418 717 388 c 1
529 806 m 1
 559 806 555 802 546 802 c 1
 546 802 538 806 529 806 c 1
546 802 m 1
 542 802 l 1
 546 802 l 1
828 375 m 1
 819 358 l 1
 832 396 828 435 828 473 c 1
 823 473 l 1
 810 648 623 764 478 704 c 1
 482 713 508 713 499 717 c 1
 435 713 448 695 397 682 c 1
 384 665 440 691 410 674 c 1
 384 665 372 679 329 636 c 1
 333 632 354 652 337 631 c 1
 299 635 213 542 196 512 c 1
 205 512 l 1
 188 474 170 452 166 426 c 0
 162 371 145 269 171 239 c 1
 166 213 l 1
 170 204 175 201 179 192 c 1
 171 192 l 1
 201 102 201 192 239 98 c 1
 235 98 231 102 222 111 c 1
 222 102 234 77 247 60 c 1
 243 51 l 1
 252 38 261 34 265 30 c 1
 235 47 295 -25 299 -34 c 1
 303 -26 l 1
 303 -39 312 -56 329 -77 c 1
 341 -77 l 1
 350 -90 371 -111 384 -111 c 1
 380 -124 l 1
 414 -137 396 -141 439 -154 c 1
 431 -137 l 1
 448 -154 456 -171 486 -184 c 0
 529 -201 533 -192 576 -205 c 1
 538 -205 499 -205 469 -196 c 0
 273 -145 98 81 111 316 c 1
 107 367 116 422 107 435 c 1
 120 473 132 516 158 567 c 1
 154 571 162 559 175 580 c 1
 179 597 188 619 205 636 c 1
 209 636 l 1
 213 666 282 713 299 734 c 1
 299 725 l 1
 342 763 414 789 457 810 c 1
 448 801 482 815 508 815 c 1
 482 802 l 1
 512 806 512 798 542 802 c 1
 533 798 517 793 521 793 c 0
 555 789 559 802 593 793 c 1
 589 802 l 1
 632 785 640 790 691 764 c 1
 712 764 712 773 738 764 c 1
 742 755 734 755 768 734 c 0
 772 734 764 742 755 755 c 1
 832 712 887 648 913 567 c 1
 892 601 914 546 905 550 c 1
 914 524 922 499 926 473 c 1
 917 494 904 546 883 580 c 1
 883 559 857 597 870 550 c 1
 883 533 874 567 887 537 c 1
 887 524 892 507 896 490 c 1
 892 490 887 507 883 503 c 1
 887 477 896 469 900 465 c 0
 900 461 896 469 896 452 c 0
 896 418 905 435 909 431 c 1
 905 414 887 392 896 362 c 1
 896 371 891 379 887 388 c 1
 887 362 896 354 883 324 c 1
 892 354 892 380 883 367 c 1
 883 324 849 295 853 269 c 1
 845 281 l 1
 815 243 840 260 823 230 c 1
 827 239 819 234 828 247 c 1
 819 247 798 226 781 209 c 0
 708 154 614 141 529 175 c 1
 525 171 546 158 559 149 c 0
 589 136 623 132 657 136 c 1
 593 110 469 161 431 234 c 1
 440 234 469 188 495 179 c 1
 482 188 470 204 461 217 c 1
 478 196 499 179 525 166 c 1
 525 175 534 174 521 183 c 0
 448 243 401 290 418 401 c 1
 427 405 431 452 457 469 c 1
 495 550 632 559 687 482 c 1
 640 520 576 529 525 499 c 1
 470 473 435 414 439 350 c 1
 439 354 444 349 444 358 c 1
 440 234 572 149 666 192 c 1
 666 188 l 1
 704 201 699 209 725 226 c 1
 721 222 708 213 717 213 c 0
 730 217 768 252 785 269 c 1
 794 290 781 282 794 303 c 1
 811 311 l 1
 820 337 828 349 828 375 c 1
405 256 m 1
 422 226 431 217 435 200 c 1
 422 213 414 226 401 243 c 1
 405 256 l 1
435 256 m 1
 439 239 l 1
 435 252 426 264 422 277 c 1
 426 268 431 260 435 256 c 1
900 358 m 1
 896 320 883 286 866 256 c 1
 883 286 892 316 896 350 c 1
 900 358 l 1
529 815 m 1
 544 816 556 819 572 819 c 1
 559 815 542 819 529 815 c 1
128 601 m 1
 128 588 145 610 132 584 c 1
 111 567 128 575 128 601 c 1
102 486 m 1
 102 499 94 503 111 520 c 1
 107 511 106 503 102 486 c 1
EndSplineSet
EndChar

StartChar: ubuntu
Encoding: 310 57636 68
Width: 1024
Flags: HW
LayerCount: 2
Fore
SplineSet
751 799 m 0
 831 799 897 734 897 654 c 2
 897 654 l 2
 897 574 831 508 751 508 c 0
 671 508 606 574 606 654 c 2
 606 654 l 2
 606 734 671 799 751 799 c 0
551 785 m 0
 563 785 574 785 585 784 c 1
 559 751 543 709 541 665 c 1
 423 663 319 604 256 513 c 1
 224 533 185 544 145 544 c 0
 143 544 142 544 140 544 c 0
 138 544 136 544 134 544 c 1
 219 694 380 786 551 785 c 0
945 572 m 1
 995 497 1024 406 1024 309 c 0
 1024 197 985 94 921 13 c 1
 910 56 886 95 852 122 c 1
 885 176 904 241 904 309 c 0
 904 369 889 426 863 476 c 1
 899 499 928 532 945 572 c 1
291 335 m 0
 291 255 225 190 145 190 c 0
 65 190 0 255 0 335 c 0
 0 336 l 0
 0 416 65 481 145 481 c 1
 145 481 l 1
 225 481 291 415 291 335 c 0
232 145 m 1
 284 43 382 -32 509 -45 c 1
 510 -91 526 -132 552 -166 c 1
 550 -166 549 -166 547 -166 c 0
 513 -166 480 -163 448 -156 c 0
 293 -123 165 -14 107 130 c 1
 119 128 132 127 145 127 c 0
 176 127 206 133 232 145 c 1
573 -40 m 0
 573 40 638 106 718 106 c 2
 719 106 l 2
 799 106 864 40 864 -40 c 0
 864 -120 798 -185 718 -185 c 0
 638 -185 573 -120 573 -40 c 0
EndSplineSet
EndChar

StartChar: archlinux
Encoding: 311 57637 69
Width: 1024
Flags: HW
LayerCount: 2
Fore
SplineSet
486 793 m 1
 486 793 l 1
 575 584 596 520 856 36 c 1
 823 56 781 73 722 88 c 1
 808 44 849 4 890 -27 c 1
 972 -179 l 1
 820 -92 702 -37 592 -16 c 1
 616 93 567 220 492 226 c 0
 431 232 381 155 378 56 c 1
 378 51 l 2
 378 50 378 50 378 49 c 0
 378 27 380 6 385 -14 c 1
 274 -35 154 -90 0 -179 c 1
 124 38 242 260 354 485 c 1
 396 452 442 425 493 406 c 1
 434 447 398 483 368 515 c 1
 416 618 443 686 486 793 c 1
977 -92 m 1
 977 -66 l 1
 967 -66 l 1
 967 -62 l 1
 991 -62 l 1
 991 -66 l 1
 981 -66 l 1
 981 -92 l 1
 995 -92 l 1
 995 -62 l 1
 1001 -62 l 1
 1008 -84 l 1
 1010 -88 l 1
 1010 -86 1011 -85 1011 -83 c 2
 1018 -62 l 1
 1024 -62 l 1
 1024 -92 l 1
 1020 -92 l 1
 1020 -67 l 1
 1011 -92 l 1
 1008 -92 l 1
 999 -67 l 1
 999 -92 l 1
 995 -92 l 1025
EndSplineSet
EndChar

StartChar: chevron left
Encoding: 312 57649 70
Width: 1024
Flags: HW
LayerCount: 2
Fore
SplineSet
657 112 m 1
 597 51 l 1
 341 307 l 1
 597 563 l 1
 657 503 l 1
 462 307 l 1
 657 112 l 1
EndSplineSet
EndChar

StartChar: chevron right
Encoding: 313 57650 71
Width: 1024
Flags: HW
LayerCount: 2
Fore
SplineSet
367 112 m 1
 562 307 l 1
 367 503 l 1
 427 563 l 1
 683 307 l 1
 427 51 l 1
 367 112 l 1
EndSplineSet
EndChar

StartChar: chevron up
Encoding: 314 57651 72
Width: 1024
Flags: HW
LayerCount: 2
Fore
SplineSet
316 162 m 1
 256 222 l 1
 512 478 l 1
 768 222 l 1
 708 162 l 1
 512 357 l 1
 316 162 l 1
EndSplineSet
EndChar

StartChar: chevron down
Encoding: 315 57652 73
Width: 1024
Flags: HW
LayerCount: 2
Fore
SplineSet
316 453 m 1
 512 257 l 1
 708 453 l 1
 768 392 l 1
 512 136 l 1
 256 392 l 1
 316 453 l 1
EndSplineSet
EndChar

StartChar: unfold less horizontal
Encoding: 316 57653 74
Width: 1024
Flags: HW
LayerCount: 2
Fore
SplineSet
708 588 m 1
 512 392 l 1
 316 588 l 1
 377 648 l 1
 512 513 l 1
 647 648 l 1
 708 588 l 1
316 26 m 1
 512 222 l 1
 707 26 l 1
 647 -34 l 1
 512 101 l 1
 377 -34 l 1
 316 26 l 1
EndSplineSet
EndChar

StartChar: unfold less vertical
Encoding: 317 57654 75
Width: 1024
Flags: HW
LayerCount: 2
Fore
SplineSet
231 503 m 1
 427 307 l 1
 231 111 l 1
 171 172 l 1
 306 307 l 1
 171 442 l 1
 231 503 l 1
793 111 m 1
 597 307 l 1
 793 502 l 1
 853 442 l 1
 718 307 l 1
 853 172 l 1
 793 111 l 1
EndSplineSet
EndChar

StartChar: unfold more horizontal
Encoding: 318 57655 76
Width: 1024
Flags: HW
LayerCount: 2
Fore
SplineSet
512 44 m 1
 647 179 l 1
 708 119 l 1
 512 -77 l 1
 317 119 l 1
 377 179 l 1
 512 44 l 1
512 570 m 1
 377 435 l 1
 316 495 l 1
 512 691 l 1
 707 495 l 1
 647 435 l 1
 512 570 l 1
EndSplineSet
EndChar

StartChar: unfold more vertical
Encoding: 319 57656 77
Width: 1024
Flags: HW
LayerCount: 2
Fore
SplineSet
775 307 m 1
 640 442 l 1
 700 503 l 1
 896 307 l 1
 700 112 l 1
 640 172 l 1
 775 307 l 1
249 307 m 1
 384 172 l 1
 324 111 l 1
 128 307 l 1
 324 502 l 1
 384 442 l 1
 249 307 l 1
EndSplineSet
EndChar

StartChar: chart pie
Encoding: 320 57680 78
Width: 1024
Flags: HW
LayerCount: 2
Fore
SplineSet
469 734 m 1
 469 -120 l 1
 254 -98 86 84 86 305 c 0
 86 306 85 306 85 307 c 0
 85 308 85 308 85 309 c 0
 85 530 254 712 469 734 c 1
555 734 m 1
 760 713 918 555 939 350 c 1
 555 350 l 1
 555 734 l 1
555 264 m 1
 939 264 l 1
 918 59 756 -99 555 -120 c 1
 555 264 l 1
EndSplineSet
EndChar

StartChar: chart arc
Encoding: 321 57681 79
Width: 1024
Flags: HW
LayerCount: 2
Fore
SplineSet
690 -17 m 1
 605 131 l 1
 647 162 675 209 681 264 c 1
 853 264 l 1
 846 146 783 44 690 -17 c 1
555 519 m 1
 555 691 l 1
 738 680 885 533 896 350 c 1
 724 350 l 1
 714 439 644 509 555 519 c 1
299 286 m 0
 299 259 304 232 315 209 c 1
 166 123 l 1
 142 172 128 227 128 285 c 0
 128 478 279 636 469 648 c 1
 469 476 l 1
 373 465 299 385 299 286 c 0
491 -77 m 0
 489 -77 l 0
 363 -77 252 -12 188 86 c 1
 336 172 l 1
 371 124 427 93 490 93 c 0
 517 93 543 100 567 110 c 1
 653 -39 l 1
 604 -64 549 -77 491 -77 c 0
EndSplineSet
EndChar

StartChar: home
Encoding: 322 57696 80
Width: 1024
Flags: HW
LayerCount: 2
Fore
SplineSet
427 -34 m 1
 213 -34 l 1
 213 307 l 1
 85 307 l 1
 512 691 l 1
 939 307 l 1
 811 307 l 1
 811 -34 l 1
 597 -34 l 1
 597 222 l 1
 427 222 l 1
 427 -34 l 1
EndSplineSet
EndChar

StartChar: home outline
Encoding: 323 57697 81
Width: 1024
Flags: HW
LayerCount: 2
Fore
SplineSet
512 576 m 1
 299 384 l 1
 299 51 l 1
 384 51 l 1
 384 307 l 1
 640 307 l 1
 640 51 l 1
 725 51 l 1
 725 384 l 1
 512 576 l 1
512 691 m 1
 939 307 l 1
 811 307 l 1
 811 -34 l 1
 555 -34 l 1
 555 222 l 1
 469 222 l 1
 469 -34 l 1
 213 -34 l 1
 213 307 l 1
 85 307 l 1
 512 691 l 1
EndSplineSet
EndChar

StartChar: account
Encoding: 324 57698 82
Width: 1024
Flags: HW
LayerCount: 2
Fore
SplineSet
512 648 m 0
 606 648 683 572 683 478 c 0
 683 384 606 307 512 307 c 0
 418 307 341 384 341 478 c 0
 341 572 418 648 512 648 c 0
512 222 m 0
 701 222 853 145 853 51 c 2
 853 -34 l 1
 171 -34 l 1
 171 51 l 2
 171 145 323 222 512 222 c 0
EndSplineSet
EndChar

StartChar: account outline
Encoding: 325 57699 83
Width: 1024
Flags: HW
LayerCount: 2
Fore
SplineSet
512 648 m 0
 606 648 683 572 683 478 c 0
 683 384 606 307 512 307 c 0
 418 307 341 384 341 478 c 0
 341 572 418 648 512 648 c 0
512 563 m 0
 465 563 427 525 427 478 c 0
 427 431 465 392 512 392 c 0
 559 392 597 431 597 478 c 0
 597 525 559 563 512 563 c 0
512 264 m 0
 626 264 853 208 853 94 c 2
 853 -34 l 1
 171 -34 l 1
 171 94 l 2
 171 208 398 264 512 264 c 0
512 183 m 0
 385 183 252 121 252 94 c 2
 252 47 l 1
 772 47 l 1
 772 94 l 2
 772 121 639 183 512 183 c 0
EndSplineSet
EndChar

StartChar: autorenew off
Encoding: 326 57354 84
Width: 1024
Flags: HW
LayerCount: 2
Fore
SplineSet
768 307 m 0
 768 350 757 390 738 426 c 1
 800 489 l 1
 833 437 853 374 853 308 c 0
 853 249 838 192 811 144 c 1
 747 208 l 1
 761 239 768 272 768 307 c 0
102 745 m 1
 943 -97 l 1
 889 -151 l 1
 710 30 l 1
 654 -11 586 -34 512 -34 c 1
 512 -162 l 1
 341 8 l 1
 512 179 l 1
 512 51 l 1
 562 51 609 65 648 90 c 1
 295 443 l 1
 270 404 256 357 256 307 c 0
 256 264 267 224 286 188 c 1
 224 125 l 1
 191 177 171 240 171 307 c 0
 171 381 195 449 235 505 c 1
 47 691 l 1
 102 745 l 1
512 563 m 1
 477 563 444 556 413 542 c 1
 349 606 l 1
 398 633 453 648 512 648 c 1
 512 776 l 1
 683 606 l 1
 516 439 l 1
 512 444 l 1
 512 563 l 1
EndSplineSet
EndChar

StartChar: clipboard text clock
Encoding: 327 57369 85
Width: 1024
Flags: HW
LayerCount: 2
Fore
SplineSet
896 345 m 1
 945 292 974 221 974 143 c 0
 974 -22 841 -155 676 -155 c 0
 598 -155 527 -126 474 -77 c 1
 213 -77 l 2
 166 -77 128 -39 128 8 c 2
 128 606 l 2
 128 653 166 691 213 691 c 2
 392 691 l 1
 410 740 457 776 512 776 c 0
 567 776 614 740 632 691 c 1
 811 691 l 2
 858 691 896 653 896 606 c 2
 896 345 l 1
512 691 m 0
 489 691 469 671 469 648 c 0
 469 625 489 606 512 606 c 0
 535 606 555 625 555 648 c 0
 555 671 535 691 512 691 c 0
256 520 m 1
 256 435 l 1
 768 435 l 1
 768 520 l 1
 256 520 l 1
387 94 m 1
 385 108 384 121 384 136 c 0
 384 151 385 165 387 179 c 1
 256 179 l 1
 256 94 l 1
 387 94 l 1
256 264 m 1
 413 264 l 1
 428 296 449 326 474 350 c 1
 256 350 l 1
 256 264 l 1
683 -77 m 0
 801 -77 896 18 896 136 c 0
 896 254 801 350 683 350 c 0
 565 350 469 254 469 136 c 0
 469 18 565 -77 683 -77 c 0
704 126 m 1
 826 54 l 1
 794 2 l 1
 640 94 l 1
 640 307 l 1
 704 307 l 1
 704 126 l 1
EndSplineSet
EndChar

StartChar: token
Encoding: 328 57372 86
Width: 1024
Flags: HW
LayerCount: 2
Fore
SplineSet
512 -120 m 1
 128 98 l 1
 128 525 l 1
 512 734 l 1
 896 525 l 1
 896 98 l 1
 512 -120 l 1
388 409 m 1
 405 426 423 439 444 448 c 0
 465 457 487 465 508 465 c 0
 529 465 551 461 572 448 c 0
 593 435 610 422 627 409 c 1
 789 503 l 1
 512 657 l 1
 226 508 l 1
 388 409 l 1
478 -30 m 1
 478 149 l 1
 440 158 409 179 388 209 c 0
 362 239 350 269 350 307 c 0
 350 316 350 324 350 333 c 0
 350 342 354 349 354 358 c 1
 192 452 l 1
 192 136 l 1
 478 -30 l 1
512 213 m 0
 538 213 563 222 580 239 c 0
 597 256 606 281 606 307 c 0
 606 333 597 358 580 375 c 0
 563 392 538 401 512 401 c 0
 486 401 461 392 444 375 c 0
 427 358 418 333 418 307 c 0
 418 281 427 256 444 239 c 0
 461 222 486 213 512 213 c 0
674 303 m 0
 674 220 607 168 546 145 c 1
 546 -30 l 1
 836 136 l 1
 836 452 l 1
 670 354 l 1
 674 345 674 337 674 328 c 0
 674 319 674 312 674 303 c 0
EndSplineSet
EndChar

StartChar: settings suggest
Encoding: 329 57373 87
Width: 1024
Flags: HW
LayerCount: 2
Fore
SplineSet
832 439 m 1
 785 537 l 1
 683 589 l 1
 785 636 l 1
 832 734 l 1
 879 636 l 1
 981 589 l 1
 879 542 l 1
 832 439 l 1
922 132 m 1
 887 200 l 1
 819 234 l 1
 887 269 l 1
 922 337 l 1
 956 269 l 1
 1024 234 l 1
 956 200 l 1
 922 132 l 1
555 439 m 1
 575 439 600 424 610 414 c 1
 695 448 l 1
 789 294 l 1
 708 243 l 1
 712 230 713 222 713 209 c 0
 713 196 712 188 708 175 c 1
 789 124 l 1
 695 -30 l 1
 610 4 l 1
 601 -5 594 -9 585 -13 c 0
 572 -17 564 -22 555 -22 c 1
 542 -120 l 1
 363 -120 l 1
 354 -22 l 1
 334 -22 309 -6 299 4 c 1
 213 -30 l 1
 119 124 l 1
 196 179 l 1
 192 192 192 200 192 213 c 0
 192 226 192 234 196 247 c 1
 115 298 l 1
 209 452 l 1
 290 418 l 1
 304 432 327 439 354 439 c 1
 363 537 l 1
 542 537 l 1
 555 439 l 1
452 89 m 0
 418 89 389 98 363 124 c 0
 342 150 329 179 329 213 c 0
 329 251 342 282 363 303 c 0
 389 324 418 337 452 337 c 0
 490 337 521 324 542 303 c 0
 563 277 576 247 576 213 c 0
 576 175 563 145 542 124 c 0
 516 103 486 89 452 89 c 0
393 213 m 0
 393 180 419 153 452 153 c 0
 485 153 512 180 512 213 c 0
 512 246 485 273 452 273 c 0
 419 273 393 246 393 213 c 0
418 -56 m 1
 491 -56 l 1
 499 25 l 1
 520 29 538 38 555 47 c 0
 572 56 589 68 602 85 c 1
 670 55 l 1
 704 111 l 1
 640 153 l 1
 649 170 653 188 653 209 c 0
 653 226 649 247 640 264 c 1
 708 311 l 1
 674 367 l 1
 606 337 l 1
 581 362 546 388 503 397 c 1
 495 478 l 1
 418 478 l 1
 410 397 l 1
 389 393 371 384 354 375 c 0
 337 366 320 354 307 337 c 1
 239 367 l 1
 205 311 l 1
 265 264 l 1
 261 247 256 230 256 209 c 0
 256 188 260 170 269 153 c 1
 201 106 l 1
 235 51 l 1
 303 81 l 1
 316 64 333 55 350 42 c 0
 367 33 384 25 405 21 c 1
 418 -56 l 1
EndSplineSet
EndChar

StartChar: star cog
Encoding: 330 57374 88
Width: 1024
Flags: HW
LayerCount: 2
Fore
SplineSet
802 307 m 1
 665 303 551 206 520 77 c 1
 512 82 l 1
 248 -77 l 1
 318 223 l 1
 85 425 l 1
 392 451 l 1
 512 734 l 1
 632 451 l 1
 939 425 l 1
 802 307 l 1
1017 -62 m 2
 974 -135 l 2
 971 -141 966 -141 960 -141 c 1
 908 -120 l 1
 896 -128 885 -134 872 -140 c 1
 864 -196 l 2
 863 -201 858 -205 853 -205 c 2
 768 -205 l 2
 762 -205 758 -201 757 -196 c 2
 749 -140 l 1
 736 -135 724 -128 713 -120 c 1
 660 -141 l 1
 655 -141 649 -141 646 -135 c 2
 604 -62 l 2
 601 -57 602 -51 606 -48 c 2
 652 -13 l 1
 651 -6 650 1 650 8 c 0
 650 15 651 23 652 30 c 1
 606 65 l 2
 602 68 601 73 604 78 c 2
 646 152 l 2
 649 158 655 158 660 158 c 1
 713 136 l 1
 724 144 736 150 749 156 c 1
 757 213 l 2
 758 218 762 222 768 222 c 2
 853 222 l 2
 858 222 863 218 863 213 c 2
 871 156 l 1
 884 151 896 144 908 136 c 1
 960 158 l 1
 966 158 971 158 974 152 c 2
 1016 78 l 2
 1019 73 1018 68 1014 65 c 2
 969 30 l 1
 970 23 970 15 970 8 c 0
 970 1 970 -6 969 -13 c 1
 1014 -48 l 2
 1018 -51 1020 -57 1017 -62 c 2
875 8 m 0
 875 43 846 72 811 72 c 0
 776 72 747 43 747 8 c 0
 747 -27 775 -56 811 -56 c 0
 846 -56 875 -27 875 8 c 0
EndSplineSet
EndChar

StartChar: star cog outline
Encoding: 331 57375 89
Width: 1024
Flags: HW
LayerCount: 2
Fore
SplineSet
439 387 m 1
 252 371 l 1
 394 248 l 1
 352 66 l 1
 512 162 l 1
 544 143 l 1
 533 123 526 100 520 77 c 1
 512 82 l 1
 248 -77 l 1
 318 223 l 1
 85 425 l 1
 392 451 l 1
 512 734 l 1
 632 451 l 1
 939 425 l 1
 802 307 l 1
 738 305 679 283 631 246 c 1
 630 248 l 1
 772 371 l 1
 585 387 l 1
 512 559 l 1
 439 387 l 1
1017 -62 m 2
 974 -135 l 2
 971 -141 966 -141 960 -141 c 1
 908 -120 l 1
 896 -128 885 -134 872 -140 c 1
 864 -196 l 2
 863 -201 858 -205 853 -205 c 2
 768 -205 l 2
 762 -205 758 -201 757 -196 c 2
 749 -140 l 1
 736 -135 724 -128 713 -120 c 1
 660 -141 l 1
 655 -141 649 -141 646 -135 c 2
 604 -62 l 2
 601 -57 602 -51 606 -48 c 2
 652 -13 l 1
 651 -6 650 1 650 8 c 0
 650 15 651 23 652 30 c 1
 606 65 l 2
 602 68 601 73 604 78 c 2
 646 152 l 2
 649 158 655 158 660 158 c 1
 713 136 l 1
 724 144 736 150 749 156 c 1
 757 213 l 2
 758 218 762 222 768 222 c 2
 853 222 l 2
 858 222 863 218 863 213 c 2
 871 156 l 1
 884 151 896 144 908 136 c 1
 960 158 l 1
 966 158 971 158 974 152 c 2
 1016 78 l 2
 1019 73 1018 68 1014 65 c 2
 969 30 l 1
 970 23 970 15 970 8 c 0
 970 1 970 -6 969 -13 c 1
 1014 -48 l 2
 1018 -51 1020 -57 1017 -62 c 2
875 8 m 0
 875 43 846 72 811 72 c 0
 776 72 747 43 747 8 c 0
 747 -27 775 -56 811 -56 c 0
 846 -56 875 -27 875 8 c 0
EndSplineSet
EndChar

StartChar: clipboard text clock outline
Encoding: 332 57385 90
Width: 1024
Flags: HW
LayerCount: 2
Fore
SplineSet
896 345 m 1
 945 292 974 221 974 143 c 0
 974 -22 841 -155 676 -155 c 0
 598 -155 527 -126 474 -77 c 1
 213 -77 l 2
 166 -77 128 -39 128 8 c 2
 128 606 l 2
 128 653 166 691 213 691 c 2
 392 691 l 1
 410 740 457 776 512 776 c 0
 567 776 614 740 632 691 c 1
 811 691 l 2
 858 691 896 653 896 606 c 2
 896 345 l 1
512 691 m 0
 489 691 469 671 469 648 c 0
 469 625 489 606 512 606 c 0
 535 606 555 625 555 648 c 0
 555 671 535 691 512 691 c 0
213 8 m 1
 413 8 l 1
 394 46 384 88 384 133 c 0
 384 149 385 164 387 179 c 1
 299 179 l 1
 299 264 l 1
 413 264 l 1
 428 296 449 326 474 350 c 1
 299 350 l 1
 299 435 l 1
 683 435 l 2
 729 435 772 424 811 406 c 1
 811 606 l 1
 725 606 l 1
 725 520 l 1
 299 520 l 1
 299 606 l 1
 213 606 l 1
 213 8 l 1
683 -77 m 0
 801 -77 896 18 896 136 c 0
 896 254 801 350 683 350 c 0
 565 350 469 254 469 136 c 0
 469 18 565 -77 683 -77 c 0
704 126 m 1
 826 54 l 1
 794 2 l 1
 640 94 l 1
 640 307 l 1
 704 307 l 1
 704 126 l 1
EndSplineSet
EndChar

StartChar: alarm light
Encoding: 333 57396 91
Width: 1024
Flags: HW
LayerCount: 2
Fore
SplineSet
256 525 m 1
 165 615 l 1
 225 675 l 1
 316 584 l 1
 256 525 l 1
555 776 m 1
 555 648 l 1
 469 648 l 1
 469 776 l 1
 555 776 l 1
859 615 m 1
 768 525 l 1
 708 584 l 1
 799 675 l 1
 859 615 l 1
192 371 m 1
 192 286 l 1
 64 286 l 1
 64 371 l 1
 192 371 l 1
832 371 m 1
 960 371 l 1
 960 286 l 1
 832 286 l 1
 832 371 l 1
256 -34 m 2
 768 -34 l 2
 815 -34 853 -73 853 -120 c 1
 171 -120 l 1
 171 -73 209 -34 256 -34 c 2
512 606 m 0
 653 606 768 491 768 350 c 2
 768 8 l 1
 256 8 l 1
 256 350 l 2
 256 491 371 606 512 606 c 0
EndSplineSet
EndChar

StartChar: alarm light off
Encoding: 334 57397 92
Width: 1024
Flags: HW
LayerCount: 2
Fore
SplineSet
768 188 m 1
 384 572 l 1
 422 593 465 606 512 606 c 0
 653 606 768 491 768 350 c 2
 768 188 l 1
858 614 m 1
 768 525 l 1
 708 584 l 1
 798 674 l 1
 858 614 l 1
832 371 m 1
 960 371 l 1
 960 286 l 1
 832 286 l 1
 832 371 l 1
192 371 m 1
 192 286 l 1
 64 286 l 1
 64 371 l 1
 192 371 l 1
47 691 m 1
 102 746 l 1
 943 -94 l 1
 887 -150 l 1
 858 -120 l 1
 171 -120 l 1
 171 -73 209 -34 256 -34 c 2
 772 -34 l 1
 730 8 l 1
 256 8 l 1
 256 350 l 2
 256 388 265 426 282 456 c 1
 47 691 l 1
555 776 m 1
 555 648 l 1
 469 648 l 1
 469 776 l 1
 555 776 l 1
EndSplineSet
EndChar

StartChar: alarm light outline
Encoding: 335 57398 93
Width: 1024
Flags: HW
LayerCount: 2
Fore
SplineSet
256 525 m 1
 165 615 l 1
 225 675 l 1
 316 584 l 1
 256 525 l 1
555 776 m 1
 555 648 l 1
 469 648 l 1
 469 776 l 1
 555 776 l 1
859 615 m 1
 768 525 l 1
 708 584 l 1
 799 675 l 1
 859 615 l 1
192 371 m 1
 192 286 l 1
 64 286 l 1
 64 371 l 1
 192 371 l 1
832 371 m 1
 960 371 l 1
 960 286 l 1
 832 286 l 1
 832 371 l 1
256 -34 m 2
 768 -34 l 2
 815 -34 853 -73 853 -120 c 1
 171 -120 l 1
 171 -73 209 -34 256 -34 c 2
512 606 m 0
 653 606 768 491 768 350 c 2
 768 8 l 1
 256 8 l 1
 256 350 l 2
 256 491 371 606 512 606 c 0
512 520 m 0
 418 520 341 444 341 350 c 2
 341 94 l 1
 683 94 l 1
 683 350 l 2
 683 444 606 520 512 520 c 0
EndSplineSet
EndChar

StartChar: alarm light off outline
Encoding: 336 57399 94
Width: 1024
Flags: HW
LayerCount: 2
Fore
SplineSet
448 508 m 1
 384 572 l 1
 422 593 465 606 512 606 c 0
 653 606 768 491 768 350 c 2
 768 188 l 1
 683 273 l 1
 683 350 l 2
 683 444 606 520 512 520 c 0
 491 520 469 517 448 508 c 1
858 614 m 1
 768 525 l 1
 708 584 l 1
 798 674 l 1
 858 614 l 1
832 371 m 1
 960 371 l 1
 960 286 l 1
 832 286 l 1
 832 371 l 1
192 371 m 1
 192 286 l 1
 64 286 l 1
 64 371 l 1
 192 371 l 1
102 746 m 1
 943 -94 l 1
 887 -150 l 1
 858 -120 l 1
 171 -120 l 1
 171 -73 209 -34 256 -34 c 2
 772 -34 l 1
 730 8 l 1
 256 8 l 1
 256 350 l 2
 256 388 265 426 282 456 c 1
 47 691 l 1
 102 746 l 1
341 94 m 1
 644 94 l 1
 346 392 l 1
 346 379 341 363 341 350 c 2
 341 94 l 1
555 776 m 1
 555 648 l 1
 469 648 l 1
 469 776 l 1
 555 776 l 1
EndSplineSet
EndChar

StartChar: battery outline
Encoding: 337 57408 95
Width: 1024
Flags: HW
LayerCount: 2
Fore
SplineSet
683 -34 m 1
 683 563 l 1
 341 563 l 1
 341 -34 l 1
 683 -34 l 1
711 648 m 2
 742 648 768 623 768 592 c 2
 768 -63 l 2
 768 -94 742 -120 711 -120 c 2
 313 -120 l 2
 282 -120 256 -94 256 -63 c 2
 256 592 l 2
 256 623 282 648 313 648 c 2
 384 648 l 1
 384 734 l 1
 640 734 l 1
 640 648 l 1
 711 648 l 2
EndSplineSet
EndChar

StartChar: battery 10
Encoding: 338 57409 96
Width: 1024
Flags: HW
LayerCount: 2
Fore
SplineSet
683 51 m 1
 683 563 l 1
 341 563 l 1
 341 51 l 1
 683 51 l 1
711 648 m 2
 742 648 768 623 768 592 c 2
 768 -63 l 2
 768 -94 742 -120 711 -120 c 2
 313 -120 l 2
 282 -120 256 -94 256 -63 c 2
 256 592 l 2
 256 623 282 648 313 648 c 2
 384 648 l 1
 384 734 l 1
 640 734 l 1
 640 648 l 1
 711 648 l 2
EndSplineSet
EndChar

StartChar: battery 20
Encoding: 339 57410 97
Width: 1024
Flags: HW
LayerCount: 2
Fore
SplineSet
683 94 m 1
 683 563 l 1
 341 563 l 1
 341 94 l 1
 683 94 l 1
711 648 m 2
 742 648 768 623 768 592 c 2
 768 -63 l 2
 768 -94 742 -120 711 -120 c 2
 313 -120 l 2
 282 -120 256 -94 256 -63 c 2
 256 592 l 2
 256 623 282 648 313 648 c 2
 384 648 l 1
 384 734 l 1
 640 734 l 1
 640 648 l 1
 711 648 l 2
EndSplineSet
EndChar

StartChar: battery 30
Encoding: 340 57411 98
Width: 1024
Flags: HW
LayerCount: 2
Fore
SplineSet
683 179 m 1
 683 563 l 1
 341 563 l 1
 341 179 l 1
 683 179 l 1
711 648 m 2
 742 648 768 623 768 592 c 2
 768 -63 l 2
 768 -94 742 -120 711 -120 c 2
 313 -120 l 2
 282 -120 256 -94 256 -63 c 2
 256 592 l 2
 256 623 282 648 313 648 c 2
 384 648 l 1
 384 734 l 1
 640 734 l 1
 640 648 l 1
 711 648 l 2
EndSplineSet
EndChar

StartChar: battery 40
Encoding: 341 57412 99
Width: 1024
Flags: HW
LayerCount: 2
Fore
SplineSet
683 222 m 1
 683 563 l 1
 341 563 l 1
 341 222 l 1
 683 222 l 1
711 648 m 2
 742 648 768 623 768 592 c 2
 768 -63 l 2
 768 -94 742 -120 711 -120 c 2
 313 -120 l 2
 282 -120 256 -94 256 -63 c 2
 256 592 l 2
 256 623 282 648 313 648 c 2
 384 648 l 1
 384 734 l 1
 640 734 l 1
 640 648 l 1
 711 648 l 2
EndSplineSet
EndChar

StartChar: battery 50
Encoding: 342 57413 100
Width: 1024
Flags: HW
LayerCount: 2
Fore
SplineSet
683 264 m 1
 683 563 l 1
 341 563 l 1
 341 264 l 1
 683 264 l 1
711 648 m 2
 742 648 768 623 768 592 c 2
 768 -63 l 2
 768 -94 742 -120 711 -120 c 2
 313 -120 l 2
 282 -120 256 -94 256 -63 c 2
 256 592 l 2
 256 623 282 648 313 648 c 2
 384 648 l 1
 384 734 l 1
 640 734 l 1
 640 648 l 1
 711 648 l 2
EndSplineSet
EndChar

StartChar: battery 60
Encoding: 343 57414 101
Width: 1024
Flags: HW
LayerCount: 2
Fore
SplineSet
683 307 m 1
 683 563 l 1
 341 563 l 1
 341 307 l 1
 683 307 l 1
711 648 m 2
 742 648 768 623 768 592 c 2
 768 -63 l 2
 768 -94 742 -120 711 -120 c 2
 313 -120 l 2
 282 -120 256 -94 256 -63 c 2
 256 592 l 2
 256 623 282 648 313 648 c 2
 384 648 l 1
 384 734 l 1
 640 734 l 1
 640 648 l 1
 711 648 l 2
EndSplineSet
EndChar

StartChar: battery 70
Encoding: 344 57415 102
Width: 1024
Flags: HW
LayerCount: 2
Fore
SplineSet
683 392 m 1
 683 563 l 1
 341 563 l 1
 341 392 l 1
 683 392 l 1
711 648 m 2
 742 648 768 623 768 592 c 2
 768 -63 l 2
 768 -94 742 -120 711 -120 c 2
 313 -120 l 2
 282 -120 256 -94 256 -63 c 2
 256 592 l 2
 256 623 282 648 313 648 c 2
 384 648 l 1
 384 734 l 1
 640 734 l 1
 640 648 l 1
 711 648 l 2
EndSplineSet
EndChar

StartChar: battery 80
Encoding: 345 57416 103
Width: 1024
Flags: HW
LayerCount: 2
Fore
SplineSet
683 435 m 1
 683 563 l 1
 341 563 l 1
 341 435 l 1
 683 435 l 1
711 648 m 2
 742 648 768 623 768 592 c 2
 768 -63 l 2
 768 -94 742 -120 711 -120 c 2
 313 -120 l 2
 282 -120 256 -94 256 -63 c 2
 256 592 l 2
 256 623 282 648 313 648 c 2
 384 648 l 1
 384 734 l 1
 640 734 l 1
 640 648 l 1
 711 648 l 2
EndSplineSet
EndChar

StartChar: battery 90
Encoding: 346 57417 104
Width: 1024
Flags: HW
LayerCount: 2
Fore
SplineSet
683 478 m 1
 683 563 l 1
 341 563 l 1
 341 478 l 1
 683 478 l 1
711 648 m 2
 742 648 768 623 768 592 c 2
 768 -63 l 2
 768 -94 742 -120 711 -120 c 2
 313 -120 l 2
 282 -120 256 -94 256 -63 c 2
 256 592 l 2
 256 623 282 648 313 648 c 2
 384 648 l 1
 384 734 l 1
 640 734 l 1
 640 648 l 1
 711 648 l 2
EndSplineSet
EndChar

StartChar: battery
Encoding: 347 57418 105
Width: 1024
Flags: HW
LayerCount: 2
Fore
SplineSet
711 648 m 2
 742 648 768 623 768 592 c 2
 768 -63 l 2
 768 -94 742 -120 711 -120 c 2
 313 -120 l 2
 282 -120 256 -94 256 -63 c 2
 256 592 l 2
 256 623 282 648 313 648 c 2
 384 648 l 1
 384 734 l 1
 640 734 l 1
 640 648 l 1
 711 648 l 2
EndSplineSet
EndChar

StartChar: battery alert
Encoding: 348 57419 106
Width: 1024
Flags: HW
LayerCount: 2
Fore
SplineSet
555 222 m 1
 555 478 l 1
 469 478 l 1
 469 222 l 1
 555 222 l 1
555 51 m 1
 555 136 l 1
 469 136 l 1
 469 51 l 1
 555 51 l 1
713 648 m 2
 743 648 768 623 764 593 c 1
 764 -64 l 2
 764 -94 738 -120 708 -120 c 2
 311 -120 l 2
 281 -120 256 -94 256 -60 c 2
 256 593 l 2
 256 623 281 648 311 648 c 2
 384 648 l 1
 384 734 l 1
 640 734 l 1
 640 648 l 1
 713 648 l 2
EndSplineSet
EndChar

StartChar: battery unknown
Encoding: 349 57420 107
Width: 1024
Flags: HW
LayerCount: 2
Fore
SplineSet
643 296 m 2
 667 320 683 354 683 392 c 0
 683 486 606 563 512 563 c 0
 418 563 341 486 341 392 c 1
 427 392 l 1
 427 439 465 478 512 478 c 0
 559 478 597 439 597 392 c 0
 597 369 588 347 572 332 c 2
 519 278 l 2
 493 252 476 217 471 179 c 1
 559 179 l 1
 566 214 582 234 605 257 c 2
 643 296 l 2
555 8 m 1
 555 94 l 1
 469 94 l 1
 469 8 l 1
 555 8 l 1
711 648 m 2
 742 648 768 624 768 592 c 2
 768 -62 l 2
 768 -94 742 -120 711 -120 c 2
 313 -120 l 2
 282 -120 256 -94 256 -62 c 2
 256 592 l 2
 256 623 282 648 313 648 c 2
 384 648 l 1
 384 734 l 1
 640 734 l 1
 640 648 l 1
 711 648 l 2
EndSplineSet
EndChar

StartChar: battery charging outline
Encoding: 350 57424 108
Width: 1024
Flags: HW
LayerCount: 2
Fore
SplineSet
983 350 m 1
 770 -120 l 1
 770 222 l 1
 642 222 l 1
 855 648 l 1
 855 350 l 1
 983 350 l 1
512 -34 m 1
 514 563 l 1
 173 563 l 1
 171 -34 l 1
 512 -34 l 1
543 648 m 2
 574 648 599 623 599 592 c 2
 599 -63 l 2
 599 -94 574 -120 543 -120 c 2
 144 -120 l 2
 113 -120 87 -94 87 -63 c 2
 87 592 l 2
 87 623 113 648 144 648 c 2
 215 648 l 1
 215 734 l 1
 471 734 l 1
 471 648 l 1
 543 648 l 2
EndSplineSet
EndChar

StartChar: battery charging 10
Encoding: 351 57425 109
Width: 1024
Flags: HW
LayerCount: 2
Fore
SplineSet
983 350 m 1
 770 -120 l 1
 770 222 l 1
 642 222 l 1
 855 648 l 1
 855 350 l 1
 983 350 l 1
512 51 m 1
 514 563 l 1
 173 563 l 1
 171 51 l 1
 512 51 l 1
543 648 m 2
 574 648 599 623 599 592 c 2
 599 -63 l 2
 599 -94 574 -120 543 -120 c 2
 144 -120 l 2
 113 -120 87 -94 87 -63 c 2
 87 592 l 2
 87 623 113 648 144 648 c 2
 215 648 l 1
 215 734 l 1
 471 734 l 1
 471 648 l 1
 543 648 l 2
EndSplineSet
EndChar

StartChar: battery charging 20
Encoding: 352 57426 110
Width: 1024
Flags: HW
LayerCount: 2
Fore
SplineSet
983 350 m 1
 770 -120 l 1
 770 222 l 1
 642 222 l 1
 855 648 l 1
 855 350 l 1
 983 350 l 1
514 94 m 1
 514 563 l 1
 173 563 l 1
 173 94 l 1
 514 94 l 1
543 648 m 2
 574 648 599 623 599 592 c 2
 599 -63 l 2
 599 -94 574 -120 543 -120 c 2
 144 -120 l 2
 113 -120 87 -94 87 -63 c 2
 87 592 l 2
 87 623 113 648 144 648 c 2
 215 648 l 1
 215 734 l 1
 471 734 l 1
 471 648 l 1
 543 648 l 2
EndSplineSet
EndChar

StartChar: battery charging 30
Encoding: 353 57427 111
Width: 1024
Flags: HW
LayerCount: 2
Fore
SplineSet
512 179 m 1
 512 563 l 1
 171 563 l 1
 171 179 l 1
 512 179 l 1
541 648 m 2
 572 648 597 623 597 592 c 2
 597 -63 l 2
 597 -94 572 -120 541 -120 c 2
 142 -120 l 2
 111 -120 85 -94 85 -63 c 2
 85 592 l 2
 85 623 111 648 142 648 c 2
 213 648 l 1
 213 734 l 1
 469 734 l 1
 469 648 l 1
 541 648 l 2
981 350 m 1
 768 -120 l 1
 768 222 l 1
 640 222 l 1
 853 648 l 1
 853 350 l 1
 981 350 l 1
EndSplineSet
EndChar

StartChar: battery charging 40
Encoding: 354 57428 112
Width: 1024
Flags: HW
LayerCount: 2
Fore
SplineSet
555 648 m 2
 581 648 597 632 597 606 c 2
 597 -77 l 2
 597 -103 581 -120 555 -120 c 2
 128 -120 l 2
 102 -120 85 -103 85 -77 c 2
 85 606 l 2
 85 632 102 648 128 648 c 2
 213 648 l 1
 213 734 l 1
 469 734 l 1
 469 648 l 1
 555 648 l 2
512 200 m 1
 512 563 l 1
 171 563 l 1
 171 200 l 1
 512 200 l 1
981 350 m 1
 768 -120 l 1
 768 222 l 1
 640 222 l 1
 853 648 l 1
 853 350 l 1
 981 350 l 1
EndSplineSet
EndChar

StartChar: battery charging 50
Encoding: 355 57429 113
Width: 1024
Flags: HW
LayerCount: 2
Fore
SplineSet
981 350 m 1
 768 -120 l 1
 768 222 l 1
 640 222 l 1
 853 648 l 1
 853 350 l 1
 981 350 l 1
512 264 m 1
 512 563 l 1
 171 563 l 1
 171 264 l 1
 512 264 l 1
541 648 m 2
 572 648 597 623 597 592 c 2
 597 -63 l 2
 597 -94 572 -120 541 -120 c 2
 142 -120 l 2
 111 -120 85 -94 85 -63 c 2
 85 592 l 2
 85 623 111 648 142 648 c 2
 213 648 l 1
 213 734 l 1
 469 734 l 1
 469 648 l 1
 541 648 l 2
EndSplineSet
EndChar

StartChar: battery charging 60
Encoding: 356 57430 114
Width: 1024
Flags: HW
LayerCount: 2
Fore
SplineSet
512 350 m 1
 512 563 l 1
 171 563 l 1
 171 350 l 1
 512 350 l 1
541 648 m 2
 572 648 597 623 597 592 c 2
 597 -63 l 2
 597 -94 572 -120 541 -120 c 2
 142 -120 l 2
 111 -120 85 -94 85 -63 c 2
 85 592 l 2
 85 623 111 648 142 648 c 2
 213 648 l 1
 213 734 l 1
 469 734 l 1
 469 648 l 1
 541 648 l 2
981 350 m 1
 768 -120 l 1
 768 222 l 1
 640 222 l 1
 853 648 l 1
 853 350 l 1
 981 350 l 1
EndSplineSet
EndChar

StartChar: battery charging 70
Encoding: 357 57431 115
Width: 1024
Flags: HW
LayerCount: 2
Fore
SplineSet
512 392 m 1
 512 563 l 1
 171 563 l 1
 171 392 l 1
 512 392 l 1
541 648 m 2
 572 648 597 623 597 592 c 2
 597 -63 l 2
 597 -94 572 -120 541 -120 c 2
 142 -120 l 2
 111 -120 85 -94 85 -63 c 2
 85 592 l 2
 85 623 111 648 142 648 c 2
 213 648 l 1
 213 734 l 1
 469 734 l 1
 469 648 l 1
 541 648 l 2
981 350 m 1
 768 -120 l 1
 768 222 l 1
 640 222 l 1
 853 648 l 1
 853 350 l 1
 981 350 l 1
EndSplineSet
EndChar

StartChar: battery charging 80
Encoding: 358 57432 116
Width: 1024
Flags: HW
LayerCount: 2
Fore
SplineSet
981 350 m 1
 768 -120 l 1
 768 222 l 1
 640 222 l 1
 853 648 l 1
 853 350 l 1
 981 350 l 1
512 435 m 1
 512 563 l 1
 171 563 l 1
 171 435 l 1
 512 435 l 1
541 648 m 2
 572 648 597 623 597 592 c 2
 597 -63 l 2
 597 -94 572 -120 541 -120 c 2
 142 -120 l 2
 111 -120 85 -94 85 -63 c 2
 85 592 l 2
 85 623 111 648 142 648 c 2
 213 648 l 1
 213 734 l 1
 469 734 l 1
 469 648 l 1
 541 648 l 2
EndSplineSet
EndChar

StartChar: battery charging 90
Encoding: 359 57433 117
Width: 1024
Flags: HW
LayerCount: 2
Fore
SplineSet
981 350 m 1
 768 -120 l 1
 768 222 l 1
 640 222 l 1
 853 648 l 1
 853 350 l 1
 981 350 l 1
512 478 m 1
 512 563 l 1
 171 563 l 1
 171 478 l 1
 512 478 l 1
541 648 m 2
 572 648 597 623 597 592 c 2
 597 -63 l 2
 597 -94 572 -120 541 -120 c 2
 142 -120 l 2
 111 -120 85 -94 85 -63 c 2
 85 592 l 2
 85 623 111 648 142 648 c 2
 213 648 l 1
 213 734 l 1
 469 734 l 1
 469 648 l 1
 541 648 l 2
EndSplineSet
EndChar

StartChar: battery charging 100
Encoding: 360 57434 118
Width: 1024
Flags: HW
LayerCount: 2
Fore
SplineSet
981 350 m 1
 768 -120 l 1
 768 222 l 1
 640 222 l 1
 853 648 l 1
 853 350 l 1
 981 350 l 1
541 648 m 2
 572 648 597 623 597 592 c 2
 597 -63 l 2
 597 -94 572 -120 541 -120 c 2
 142 -120 l 2
 111 -120 85 -94 85 -63 c 2
 85 592 l 2
 85 623 111 648 142 648 c 2
 213 648 l 1
 213 734 l 1
 469 734 l 1
 469 648 l 1
 541 648 l 2
EndSplineSet
EndChar

StartChar: battery charging
Encoding: 361 57435 119
Width: 1024
Flags: HW
LayerCount: 2
Fore
SplineSet
711 648 m 2
 742 648 768 623 768 592 c 2
 768 -63 l 2
 768 -94 743 -120 711 -120 c 2
 313 -120 l 2
 282 -120 256 -94 256 -62 c 2
 256 592 l 2
 256 623 282 648 313 648 c 2
 384 648 l 1
 384 734 l 1
 640 734 l 1
 640 648 l 1
 711 648 l 2
469 -34 m 1
 640 286 l 1
 555 286 l 1
 555 520 l 1
 384 200 l 1
 469 200 l 1
 469 -34 l 1
EndSplineSet
EndChar

StartChar: lock
Encoding: 362 57440 120
Width: 1024
Flags: HW
LayerCount: 2
Fore
SplineSet
512 94 m 0
 559 94 597 132 597 179 c 0
 597 226 559 264 512 264 c 0
 465 264 427 226 427 179 c 0
 427 132 465 94 512 94 c 0
768 478 m 2
 815 478 853 439 853 392 c 2
 853 -34 l 2
 853 -81 815 -120 768 -120 c 2
 256 -120 l 2
 209 -120 171 -81 171 -34 c 2
 171 392 l 2
 171 439 209 478 256 478 c 2
 299 478 l 1
 299 563 l 2
 299 681 394 776 512 776 c 0
 630 776 725 681 725 563 c 2
 725 478 l 1
 768 478 l 2
512 691 m 0
 441 691 384 634 384 563 c 2
 384 478 l 1
 640 478 l 1
 640 563 l 2
 640 634 583 691 512 691 c 0
EndSplineSet
EndChar

StartChar: lock outline
Encoding: 363 57441 121
Width: 1024
Flags: HW
LayerCount: 2
Fore
SplineSet
512 94 m 0
 465 94 427 132 427 179 c 0
 427 226 465 264 512 264 c 0
 559 264 597 226 597 179 c 0
 597 132 559 94 512 94 c 0
768 -34 m 1
 768 392 l 1
 256 392 l 1
 256 -34 l 1
 768 -34 l 1
768 478 m 2
 815 478 853 439 853 392 c 2
 853 -34 l 2
 853 -81 815 -120 768 -120 c 2
 256 -120 l 2
 209 -120 171 -81 171 -34 c 2
 171 392 l 2
 171 439 209 478 256 478 c 2
 299 478 l 1
 299 563 l 2
 299 681 394 776 512 776 c 0
 630 776 725 681 725 563 c 2
 725 478 l 1
 768 478 l 2
512 691 m 0
 441 691 384 634 384 563 c 2
 384 478 l 1
 640 478 l 1
 640 563 l 2
 640 634 583 691 512 691 c 0
EndSplineSet
EndChar

StartChar: lock open
Encoding: 364 57442 122
Width: 1024
Flags: HW
LayerCount: 2
Fore
SplineSet
768 478 m 2
 815 478 853 439 853 392 c 2
 853 -34 l 2
 853 -81 815 -120 768 -120 c 2
 256 -120 l 2
 209 -120 171 -81 171 -34 c 2
 171 392 l 2
 171 439 209 478 256 478 c 2
 640 478 l 1
 640 563 l 2
 640 634 583 691 512 691 c 0
 441 691 384 634 384 563 c 1
 299 563 l 1
 299 681 394 776 512 776 c 0
 630 776 725 681 725 563 c 2
 725 478 l 1
 768 478 l 2
512 94 m 0
 559 94 597 132 597 179 c 0
 597 226 559 264 512 264 c 0
 465 264 427 226 427 179 c 0
 427 132 465 94 512 94 c 0
EndSplineSet
EndChar

StartChar: lock open outline
Encoding: 365 57443 123
Width: 1024
Flags: HW
LayerCount: 2
Fore
SplineSet
768 -34 m 1
 768 392 l 1
 256 392 l 1
 256 -34 l 1
 768 -34 l 1
768 478 m 2
 815 478 853 439 853 392 c 2
 853 -34 l 2
 853 -81 815 -120 768 -120 c 2
 256 -120 l 2
 209 -120 171 -81 171 -34 c 2
 171 392 l 2
 171 439 209 478 256 478 c 2
 640 478 l 1
 640 563 l 2
 640 634 583 691 512 691 c 0
 441 691 384 634 384 563 c 1
 299 563 l 1
 299 681 394 776 512 776 c 0
 630 776 725 681 725 563 c 2
 725 478 l 1
 768 478 l 2
512 94 m 0
 465 94 427 132 427 179 c 0
 427 226 465 264 512 264 c 0
 559 264 597 226 597 179 c 0
 597 132 559 94 512 94 c 0
EndSplineSet
EndChar

StartChar: lock alert
Encoding: 366 57444 124
Width: 1024
Flags: HW
LayerCount: 2
Fore
SplineSet
427 94 m 0
 474 94 512 132 512 179 c 0
 512 226 474 264 427 264 c 0
 380 264 341 226 341 179 c 0
 341 132 380 94 427 94 c 0
683 478 m 2
 730 478 768 439 768 392 c 2
 768 -34 l 2
 768 -81 730 -120 683 -120 c 2
 171 -120 l 2
 124 -120 85 -81 85 -34 c 2
 85 392 l 2
 85 439 124 478 171 478 c 2
 213 478 l 1
 213 563 l 2
 213 682 308 776 427 776 c 0
 546 776 640 682 640 563 c 2
 640 478 l 1
 683 478 l 2
427 691 m 0
 354 691 299 636 299 563 c 2
 299 478 l 1
 555 478 l 1
 555 563 l 2
 555 636 500 691 427 691 c 0
939 264 m 1
 853 264 l 1
 853 520 l 1
 939 520 l 1
 939 264 l 1
939 94 m 1
 853 94 l 1
 853 179 l 1
 939 179 l 1
 939 94 l 1
EndSplineSet
EndChar

StartChar: lock alert outline
Encoding: 367 57445 125
Width: 1024
Flags: HW
LayerCount: 2
Fore
SplineSet
427 94 m 0
 380 94 341 132 341 179 c 0
 341 226 380 264 427 264 c 0
 474 264 512 226 512 179 c 0
 512 132 474 94 427 94 c 0
683 -34 m 1
 683 392 l 1
 171 392 l 1
 171 -34 l 1
 683 -34 l 1
683 478 m 2
 730 478 768 439 768 392 c 2
 768 -34 l 2
 768 -81 730 -120 683 -120 c 2
 171 -120 l 2
 124 -120 85 -81 85 -34 c 2
 85 392 l 2
 85 439 124 478 171 478 c 2
 213 478 l 1
 213 563 l 2
 213 682 308 776 427 776 c 0
 546 776 640 682 640 563 c 2
 640 478 l 1
 683 478 l 2
427 691 m 0
 354 691 299 636 299 563 c 2
 299 478 l 1
 555 478 l 1
 555 563 l 2
 555 636 500 691 427 691 c 0
939 520 m 1
 939 264 l 1
 853 264 l 1
 853 520 l 1
 939 520 l 1
939 179 m 1
 939 94 l 1
 853 94 l 1
 853 179 l 1
 939 179 l 1
EndSplineSet
EndChar

StartChar: map
Encoding: 368 57456 126
Width: 1024
Flags: HW
LayerCount: 2
Fore
SplineSet
640 8 m 1
 640 516 l 1
 384 606 l 1
 384 98 l 1
 640 8 l 1
875 691 m 2
 887 691 896 682 896 670 c 2
 896 25 l 2
 896 15 890 8 881 4 c 1
 640 -77 l 1
 384 13 l 1
 156 -76 l 2
 154 -77 151 -77 149 -77 c 0
 137 -77 128 -68 128 -56 c 2
 128 589 l 2
 128 599 134 607 143 610 c 2
 384 691 l 1
 640 601 l 1
 868 691 l 1
 875 691 l 2
EndSplineSet
EndChar

StartChar: map marker
Encoding: 369 57457 127
Width: 1024
Flags: HW
LayerCount: 2
Fore
SplineSet
512 328 m 0
 571 328 619 376 619 435 c 0
 619 494 571 542 512 542 c 0
 453 542 405 494 405 435 c 0
 405 376 453 328 512 328 c 0
512 734 m 0
 677 734 811 600 811 435 c 0
 811 211 512 -120 512 -120 c 1
 512 -120 213 211 213 435 c 0
 213 600 347 734 512 734 c 0
EndSplineSet
EndChar

StartChar: map marker outline
Encoding: 370 57458 128
Width: 1024
Flags: HW
LayerCount: 2
Fore
SplineSet
512 542 m 0
 571 542 619 494 619 435 c 0
 619 376 571 328 512 328 c 0
 453 328 405 376 405 435 c 0
 405 494 453 542 512 542 c 0
512 734 m 0
 677 734 811 600 811 435 c 0
 811 211 512 -120 512 -120 c 1
 512 -120 213 211 213 435 c 0
 213 600 347 734 512 734 c 0
512 648 m 0
 394 648 299 553 299 435 c 0
 299 392 299 307 512 21 c 1
 725 307 725 392 725 435 c 0
 725 553 630 648 512 648 c 0
EndSplineSet
EndChar

StartChar: map marker check
Encoding: 371 57459 129
Width: 1024
Flags: HW
LayerCount: 2
Fore
SplineSet
512 734 m 0
 677 734 811 600 811 435 c 0
 811 211 512 -120 512 -120 c 1
 512 -120 213 211 213 435 c 0
 213 600 347 734 512 734 c 0
447 222 m 1
 725 503 l 1
 666 563 l 1
 447 342 l 1
 358 431 l 1
 299 371 l 1
 447 222 l 1
EndSplineSet
EndChar

StartChar: map marker check outline
Encoding: 372 57460 130
Width: 1024
Flags: HW
LayerCount: 2
Fore
SplineSet
512 648 m 0
 393 648 299 554 299 435 c 0
 299 311 422 128 512 13 c 1
 602 128 725 311 725 435 c 0
 725 554 631 648 512 648 c 0
512 734 m 0
 678 734 811 601 811 435 c 0
 811 213 512 -120 512 -120 c 1
 512 -120 213 213 213 435 c 0
 213 601 346 734 512 734 c 0
482 222 m 1
 354 350 l 1
 414 409 l 1
 482 341 l 1
 631 495 l 1
 691 435 l 1
 482 222 l 1
EndSplineSet
EndChar

StartChar: map marker alert
Encoding: 373 57461 131
Width: 1024
Flags: HW
LayerCount: 2
Fore
SplineSet
512 734 m 0
 678 734 811 601 811 435 c 0
 811 213 512 -120 512 -120 c 1
 512 -120 213 213 213 435 c 0
 213 601 346 734 512 734 c 0
469 563 m 1
 469 307 l 1
 555 307 l 1
 555 563 l 1
 469 563 l 1
469 222 m 1
 469 136 l 1
 555 136 l 1
 555 222 l 1
 469 222 l 1
EndSplineSet
EndChar

StartChar: map marker alert outline
Encoding: 374 57462 132
Width: 1024
Flags: HW
LayerCount: 2
Fore
SplineSet
512 734 m 0
 677 734 811 600 811 435 c 0
 811 211 512 -120 512 -120 c 1
 512 -120 213 211 213 435 c 0
 213 600 347 734 512 734 c 0
512 648 m 0
 394 648 299 553 299 435 c 0
 299 392 299 307 512 21 c 1
 725 307 725 392 725 435 c 0
 725 553 630 648 512 648 c 0
469 563 m 1
 555 563 l 1
 555 350 l 1
 469 350 l 1
 469 563 l 1
469 264 m 1
 555 264 l 1
 555 179 l 1
 469 179 l 1
 469 264 l 1
EndSplineSet
EndChar

StartChar: map marker question
Encoding: 375 57463 133
Width: 1024
Flags: HW
LayerCount: 2
Fore
SplineSet
512 734 m 0
 677 734 811 600 811 435 c 0
 811 211 512 -120 512 -120 c 1
 512 -120 213 211 213 435 c 0
 213 600 347 734 512 734 c 0
550 147 m 1
 550 222 l 1
 475 222 l 1
 475 147 l 1
 550 147 l 1
550 269 m 1
 550 353 661 363 661 456 c 0
 661 538 594 606 512 606 c 0
 430 606 363 538 363 456 c 1
 437 456 l 1
 437 497 471 531 512 531 c 0
 553 531 587 497 587 456 c 0
 587 381 475 390 475 269 c 1
 550 269 l 1
EndSplineSet
EndChar

StartChar: map marker question outline
Encoding: 376 57464 134
Width: 1024
Flags: HW
LayerCount: 2
Fore
SplineSet
512 776 m 0
 700 776 853 623 853 435 c 0
 853 197 557 -134 544 -148 c 2
 512 -184 l 1
 480 -148 l 2
 467 -134 171 197 171 435 c 0
 171 623 324 776 512 776 c 0
512 -54 m 1
 587 36 768 272 768 435 c 0
 768 576 653 691 512 691 c 0
 371 691 256 576 256 435 c 0
 256 284 419 57 512 -54 c 1
475 222 m 1
 550 222 l 1
 550 147 l 1
 475 147 l 1
 475 222 l 1
512 606 m 0
 594 606 661 538 661 456 c 0
 661 363 550 353 550 269 c 1
 475 269 l 1
 475 390 587 381 587 456 c 0
 587 497 553 531 512 531 c 0
 471 531 437 497 437 456 c 1
 363 456 l 1
 363 538 430 606 512 606 c 0
EndSplineSet
EndChar

StartChar: navigation
Encoding: 377 57465 135
Width: 1024
Flags: HW
LayerCount: 2
Fore
SplineSet
512 734 m 1
 832 -47 l 1
 802 -77 l 1
 512 51 l 1
 222 -77 l 1
 192 -47 l 1
 512 734 l 1
EndSplineSet
EndChar

StartChar: crosshairs gps
Encoding: 378 57466 136
Width: 1024
Flags: HW
LayerCount: 2
Fore
SplineSet
512 478 m 0
 606 478 683 401 683 307 c 0
 683 213 606 136 512 136 c 0
 418 136 341 213 341 307 c 0
 341 401 418 478 512 478 c 0
130 264 m 1
 43 264 l 1
 43 350 l 1
 130 350 l 1
 149 528 291 670 469 689 c 1
 469 776 l 1
 555 776 l 1
 555 689 l 1
 733 670 875 528 894 350 c 1
 981 350 l 1
 981 264 l 1
 894 264 l 1
 875 86 733 -56 555 -75 c 1
 555 -162 l 1
 469 -162 l 1
 469 -75 l 1
 291 -56 149 86 130 264 c 1
512 606 m 0
 347 606 213 472 213 307 c 0
 213 142 347 8 512 8 c 0
 677 8 811 142 811 307 c 0
 811 472 677 606 512 606 c 0
EndSplineSet
EndChar

StartChar: crosshairs question
Encoding: 379 57467 137
Width: 1024
Flags: HW
LayerCount: 2
Fore
SplineSet
130 264 m 1
 43 264 l 1
 43 350 l 1
 130 350 l 1
 149 528 291 670 469 689 c 1
 469 776 l 1
 555 776 l 1
 555 689 l 1
 733 670 875 528 894 350 c 1
 981 350 l 1
 981 264 l 1
 894 264 l 1
 875 86 733 -56 555 -75 c 1
 555 -162 l 1
 469 -162 l 1
 469 -75 l 1
 291 -56 149 86 130 264 c 1
512 606 m 0
 347 606 213 472 213 307 c 0
 213 142 347 8 512 8 c 0
 677 8 811 142 811 307 c 0
 811 472 677 606 512 606 c 0
475 83 m 1
 475 158 l 1
 550 158 l 1
 550 83 l 1
 475 83 l 1
512 531 m 0
 594 531 661 464 661 382 c 0
 661 289 550 279 550 195 c 1
 475 195 l 1
 475 317 587 307 587 382 c 0
 587 423 553 456 512 456 c 0
 471 456 437 423 437 382 c 1
 363 382 l 1
 363 464 430 531 512 531 c 0
EndSplineSet
EndChar

StartChar: navigation outline
Encoding: 380 57468 138
Width: 1024
Flags: HW
LayerCount: 2
Fore
SplineSet
512 508 m 1
 329 64 l 1
 478 128 l 1
 512 145 l 1
 570 115 634 91 695 64 c 1
 512 508 l 1
512 734 m 1
 832 -47 l 1
 802 -77 l 1
 512 51 l 1
 222 -77 l 1
 192 -47 l 1
 512 734 l 1
EndSplineSet
EndChar

StartChar: radar
Encoding: 381 57469 139
Width: 1024
Flags: HW
LayerCount: 2
Fore
SplineSet
814 609 m 1
 891 532 939 425 939 307 c 0
 939 307 l 0
 939 72 747 -120 512 -120 c 0
 277 -120 85 72 85 307 c 0
 85 542 277 734 512 734 c 2
 555 734 l 1
 555 380 l 1
 581 365 597 339 597 307 c 0
 597 260 559 222 512 222 c 0
 465 222 427 260 427 307 c 0
 427 339 443 365 469 380 c 1
 469 472 l 1
 396 453 341 386 341 307 c 0
 341 213 418 136 512 136 c 0
 606 136 683 213 683 307 c 0
 683 354 664 397 633 428 c 1
 693 488 l 1
 740 442 768 378 768 307 c 0
 768 166 653 51 512 51 c 0
 371 51 256 166 256 307 c 0
 256 434 348 539 469 559 c 1
 469 645 l 1
 301 624 171 481 171 307 c 0
 171 119 324 -34 512 -34 c 0
 700 -34 853 119 853 307 c 1
 853 307 l 1
 853 401 815 486 753 548 c 1
 814 609 l 1
EndSplineSet
EndChar

StartChar: map marker path
Encoding: 382 57470 140
Width: 1024
Flags: HW
LayerCount: 2
Fore
SplineSet
768 179 m 0
 839 179 896 122 896 51 c 0
 896 -20 839 -77 768 -77 c 0
 768 -77 l 0
 712 -77 664 -42 647 8 c 1
 597 8 l 1
 597 94 l 1
 647 94 l 1
 664 144 712 179 768 179 c 0
768 94 m 0
 744 94 725 75 725 51 c 0
 725 27 744 8 768 8 c 0
 792 8 811 27 811 51 c 0
 811 75 792 94 768 94 c 0
768 478 m 0
 802 478 829 505 829 539 c 0
 829 573 802 600 768 600 c 0
 734 600 707 573 707 539 c 0
 707 505 734 478 768 478 c 0
768 709 m 0
 862 709 939 633 939 539 c 0
 939 411 768 222 768 222 c 1
 768 222 597 411 597 539 c 0
 597 633 674 709 768 709 c 0
377 94 m 1
 427 94 l 1
 427 8 l 1
 377 8 l 1
 360 -42 312 -77 256 -77 c 0
 256 -77 l 0
 185 -77 128 -20 128 51 c 0
 128 107 163 155 213 172 c 1
 213 222 l 1
 299 222 l 1
 299 172 l 1
 335 159 364 130 377 94 c 1
256 94 m 0
 232 94 213 75 213 51 c 0
 213 27 232 8 256 8 c 0
 280 8 299 27 299 51 c 0
 299 75 280 94 256 94 c 0
256 691 m 0
 327 691 384 634 384 563 c 0
 384 507 349 459 299 442 c 1
 299 392 l 1
 213 392 l 1
 213 442 l 1
 163 459 128 507 128 563 c 0
 128 563 l 0
 128 634 185 691 256 691 c 0
256 606 m 0
 232 606 213 587 213 563 c 0
 213 539 232 520 256 520 c 0
 280 520 299 539 299 563 c 0
 299 587 280 606 256 606 c 0
469 8 m 1
 469 94 l 1
 555 94 l 1
 555 8 l 1
 469 8 l 1
299 264 m 1
 213 264 l 1
 213 350 l 1
 299 350 l 1
 299 264 l 1
EndSplineSet
EndChar

StartChar: cloud
Encoding: 383 57472 141
Width: 1024
Flags: HW
LayerCount: 2
Fore
SplineSet
981 158 m 0
 981 52 895 -34 789 -34 c 2
 277 -34 l 2
 212 -34 157 -12 111 33 c 0
 65 78 43 132 43 197 c 0
 43 252 60 301 93 345 c 0
 127 389 170 417 224 429 c 1
 242 494 278 547 331 587 c 0
 384 628 445 648 512 648 c 0
 595 648 666 619 724 561 c 0
 782 503 811 433 811 350 c 1
 904 339 981 259 981 158 c 0
EndSplineSet
EndChar

StartChar: cloud outline
Encoding: 384 57473 142
Width: 1024
Flags: HW
LayerCount: 2
Fore
SplineSet
981 158 m 0
 981 52 895 -34 789 -34 c 2
 277 -34 l 2
 212 -34 157 -12 111 33 c 0
 65 78 43 132 43 197 c 0
 43 252 60 301 93 345 c 0
 127 389 170 417 224 429 c 1
 242 494 278 547 331 587 c 0
 384 628 445 648 512 648 c 0
 595 648 666 619 724 561 c 0
 782 503 811 433 811 350 c 1
 904 339 981 259 981 158 c 0
128 200 m 0
 128 118 194 51 277 51 c 2
 789 51 l 2
 848 51 896 99 896 158 c 0
 896 217 848 264 789 264 c 2
 725 264 l 1
 725 350 l 2
 725 409 705 459 663 501 c 0
 621 543 571 563 512 563 c 0
 453 563 403 543 361 501 c 0
 319 459 299 409 299 350 c 1
 277 350 l 2
 195 350 128 282 128 200 c 0
512 307 m 1024
EndSplineSet
EndChar

StartChar: cloud off outline
Encoding: 385 57475 143
Width: 1024
Flags: HW
LayerCount: 2
Fore
SplineSet
845 -145 m 1
 732 -34 l 1
 277 -34 l 2
 212 -34 157 -12 111 34 c 0
 65 80 43 135 43 200 c 0
 43 316 126 407 224 429 c 1
 229 440 234 451 237 463 c 1
 60 640 l 1
 119 700 l 1
 905 -86 l 1
 845 -145 l 1
128 200 m 0
 128 118 194 51 277 51 c 2
 646 51 l 1
 303 394 l 1
 300 379 299 367 299 350 c 1
 277 350 l 2
 195 350 128 282 128 200 c 0
475 222 m 1024
811 350 m 1
 904 339 981 259 981 158 c 0
 981 96 955 50 922 19 c 1
 860 79 l 1
 882 97 896 121 896 158 c 0
 896 217 848 264 789 264 c 2
 725 264 l 1
 725 350 l 2
 725 409 705 459 663 501 c 0
 621 543 571 563 512 563 c 0
 468 563 434 552 405 534 c 1
 343 596 l 1
 388 627 441 648 512 648 c 0
 595 648 666 619 724 561 c 0
 782 503 811 433 811 350 c 1
633 306 m 1024
EndSplineSet
EndChar

StartChar: satellite variant
Encoding: 386 57476 144
Width: 1024
Flags: HW
LayerCount: 2
Fore
SplineSet
496 776 m 1
 737 534 l 1
 647 444 l 1
 556 534 l 1
 496 474 l 1
 595 375 l 1
 546 325 l 1
 565 305 l 1
 579 311 594 315 610 315 c 0
 640 315 667 303 686 284 c 1
 535 133 l 1
 516 152 504 179 504 209 c 0
 504 225 508 240 514 254 c 1
 494 273 l 1
 444 224 l 1
 345 323 l 1
 285 263 l 1
 375 172 l 1
 285 82 l 1
 43 323 l 1
 134 414 l 1
 224 323 l 1
 285 383 l 1
 164 504 l 2
 149 519 139 540 139 564 c 0
 139 588 149 610 164 625 c 2
 194 655 l 2
 209 670 230 680 254 680 c 0
 278 680 300 670 315 655 c 2
 436 534 l 1
 496 595 l 1
 405 685 l 1
 496 776 l 1
768 222 m 1
 768 128 691 51 597 51 c 1
 597 136 l 1
 644 136 683 175 683 222 c 1
 768 222 l 1
939 222 m 1
 939 34 785 -120 597 -120 c 1
 597 -34 l 1
 738 -34 853 81 853 222 c 1
 939 222 l 1
EndSplineSet
EndChar

StartChar: satellite alert 01
Encoding: 387 57477 145
Width: 1024
Flags: HW
LayerCount: 2
Fore
SplineSet
495 776 m 1
 738 533 l 1
 649 444 l 1
 555 533 l 1
 495 473 l 1
 593 375 l 1
 542 324 l 1
 559 303 l 1
 597 320 648 315 678 281 c 1
 529 132 l 1
 495 166 491 214 508 252 c 1
 486 269 l 1
 435 217 l 1
 337 316 l 1
 286 264 l 1
 375 175 l 1
 286 85 l 1
 43 324 l 1
 132 414 l 1
 222 324 l 1
 282 384 l 1
 162 503 l 2
 128 537 128 593 162 623 c 1
 192 653 l 2
 226 687 277 687 311 653 c 2
 431 533 l 1
 491 593 l 1
 405 687 l 1
 495 776 l 1
896 392 m 1
 896 136 l 1
 811 136 l 1
 811 392 l 1
 896 392 l 1
896 51 m 1
 896 -34 l 1
 811 -34 l 1
 811 51 l 1
 896 51 l 1
EndSplineSet
EndChar

StartChar: satellite off
Encoding: 388 57478 146
Width: 1024
Flags: HW
LayerCount: 2
Fore
SplineSet
695 294 m 1
 649 247 l 1
 576 320 l 1
 614 337 657 332 695 294 c 1
657 456 m 1
 563 546 l 1
 508 486 l 1
 606 388 l 1
 555 337 l 1
 213 678 l 1
 247 699 294 700 324 670 c 2
 444 550 l 1
 503 610 l 1
 414 700 l 1
 503 789 l 1
 747 546 l 1
 657 456 l 1
73 746 m 1
 849 -26 l 1
 798 -77 l 1
 563 158 l 1
 512 106 l 1
 478 136 474 188 491 226 c 1
 469 247 l 1
 422 200 l 1
 324 298 l 1
 265 239 l 1
 354 145 l 1
 265 55 l 1
 21 298 l 1
 115 392 l 1
 205 303 l 1
 265 362 l 1
 145 482 l 2
 115 512 111 555 132 589 c 1
 26 695 l 1
 73 746 l 1
EndSplineSet
EndChar

StartChar: satellite sync
Encoding: 389 57479 147
Width: 1024
Flags: HW
LayerCount: 2
Fore
SplineSet
495 776 m 1
 738 533 l 1
 649 444 l 1
 555 533 l 1
 495 473 l 1
 593 375 l 1
 542 324 l 1
 559 303 l 1
 597 320 648 315 678 281 c 1
 529 132 l 1
 495 166 491 214 508 252 c 1
 486 269 l 1
 435 217 l 1
 337 316 l 1
 286 264 l 1
 375 175 l 1
 286 85 l 1
 43 324 l 1
 132 414 l 1
 222 324 l 1
 282 384 l 1
 162 503 l 2
 128 537 128 593 162 623 c 1
 192 653 l 2
 226 687 277 687 311 653 c 2
 431 533 l 1
 491 593 l 1
 405 687 l 1
 495 776 l 1
789 -115 m 1
 678 -106 619 34 687 119 c 1
 730 77 l 1
 696 26 729 -51 789 -60 c 1
 789 8 l 1
 887 -90 l 1
 789 -188 l 1
 789 -115 l 1
875 -17 m 1
 909 34 875 110 815 119 c 1
 815 51 l 1
 717 149 l 1
 815 247 l 1
 815 179 l 1
 926 170 985 29 917 -56 c 1
 875 -17 l 1
EndSplineSet
EndChar

StartChar: swap horizontal
Encoding: 390 57480 148
Width: 1024
Flags: HW
LayerCount: 2
Fore
SplineSet
896 435 m 1
 725 264 l 1
 725 392 l 1
 427 392 l 1
 427 478 l 1
 725 478 l 1
 725 606 l 1
 896 435 l 1
299 350 m 1
 299 222 l 1
 597 222 l 1
 597 136 l 1
 299 136 l 1
 299 8 l 1
 128 179 l 1
 299 350 l 1
EndSplineSet
EndChar

StartChar: swap horizontal bold
Encoding: 391 57481 149
Width: 1024
Flags: HW
LayerCount: 2
Fore
SplineSet
341 392 m 1
 341 264 l 1
 597 264 l 1
 597 51 l 1
 341 51 l 1
 341 -77 l 1
 85 158 l 1
 341 392 l 1
939 456 m 1
 683 222 l 1
 683 350 l 1
 427 350 l 1
 427 563 l 1
 683 563 l 1
 683 691 l 1
 939 456 l 1
EndSplineSet
EndChar

StartChar: swap vertical
Encoding: 392 57482 150
Width: 1024
Flags: HW
LayerCount: 2
Fore
SplineSet
384 691 m 1
 555 520 l 1
 427 520 l 1
 427 222 l 1
 341 222 l 1
 341 520 l 1
 213 520 l 1
 384 691 l 1
683 94 m 1
 811 94 l 1
 640 -77 l 1
 469 94 l 1
 597 94 l 1
 597 392 l 1
 683 392 l 1
 683 94 l 1
EndSplineSet
EndChar

StartChar: swap vertical bold
Encoding: 393 57483 151
Width: 1024
Flags: HW
LayerCount: 2
Fore
SplineSet
597 478 m 1
 469 478 l 1
 469 222 l 1
 256 222 l 1
 256 478 l 1
 128 478 l 1
 363 734 l 1
 597 478 l 1
661 -120 m 1
 427 136 l 1
 555 136 l 1
 555 392 l 1
 768 392 l 1
 768 136 l 1
 896 136 l 1
 661 -120 l 1
EndSplineSet
EndChar

StartChar: power
Encoding: 394 57488 152
Width: 1024
Flags: HW
LayerCount: 2
Fore
SplineSet
707 587 m 1
 796 526 853 423 853 307 c 0
 853 119 700 -34 512 -34 c 0
 324 -34 171 119 171 307 c 0
 171 423 228 526 317 587 c 1
 379 525 l 1
 306 480 256 400 256 307 c 0
 256 166 371 51 512 51 c 0
 653 51 768 166 768 307 c 0
 768 400 719 480 645 525 c 1
 707 587 l 1
555 691 m 1
 555 264 l 1
 469 264 l 1
 469 691 l 1
 555 691 l 1
EndSplineSet
EndChar

StartChar: power off
Encoding: 395 57489 153
Width: 1024
Flags: HW
LayerCount: 2
Fore
SplineSet
512 691 m 0
 724 691 896 519 896 307 c 0
 896 95 724 -77 512 -77 c 0
 300 -77 128 95 128 307 c 0
 128 519 300 691 512 691 c 0
512 8 m 0
 677 8 811 142 811 307 c 0
 811 472 677 606 512 606 c 0
 347 606 213 472 213 307 c 0
 213 142 347 8 512 8 c 0
EndSplineSet
EndChar

StartChar: power on
Encoding: 396 57490 154
Width: 1024
Flags: HW
LayerCount: 2
Fore
SplineSet
469 691 m 1
 555 691 l 1
 555 -77 l 1
 469 -77 l 1
 469 691 l 1
EndSplineSet
EndChar

StartChar: power cycle
Encoding: 397 57491 155
Width: 1024
Flags: HW
LayerCount: 2
Fore
SplineSet
512 691 m 0
 724 691 896 519 896 307 c 0
 896 95 724 -77 512 -77 c 0
 300 -77 128 95 128 307 c 0
 128 519 300 691 512 691 c 0
512 8 m 0
 677 8 811 142 811 307 c 0
 811 472 677 606 512 606 c 0
 347 606 213 472 213 307 c 0
 213 142 347 8 512 8 c 0
555 94 m 1
 469 94 l 1
 469 520 l 1
 555 520 l 1
 555 94 l 1
EndSplineSet
EndChar

StartChar: power sleep
Encoding: 398 57492 156
Width: 1024
Flags: HW
LayerCount: 2
Fore
SplineSet
799 51 m 1
 729 -27 627 -76 514 -76 c 0
 302 -76 130 96 130 308 c 0
 130 509 285 674 481 691 c 1
 420 623 382 533 382 434 c 0
 382 223 554 51 765 51 c 0
 766 51 767 51 768 51 c 2
 799 51 l 1
EndSplineSet
EndChar

StartChar: message
Encoding: 399 57616 157
Width: 1024
Flags: HW
LayerCount: 2
Fore
SplineSet
853 734 m 2
 900 734 939 695 939 648 c 2
 939 136 l 2
 939 89 900 51 853 51 c 2
 256 51 l 1
 85 -120 l 1
 85 648 l 2
 85 695 124 734 171 734 c 2
 853 734 l 2
EndSplineSet
EndChar

StartChar: message off
Encoding: 400 57617 158
Width: 1024
Flags: HW
LayerCount: 2
Fore
SplineSet
894 62 m 1
 222 734 l 1
 853 734 l 2
 900 734 939 695 939 648 c 2
 939 136 l 2
 939 104 920 77 894 62 c 1
102 745 m 1
 943 -97 l 1
 889 -151 l 1
 687 51 l 1
 256 51 l 1
 85 -120 l 1
 85 653 l 1
 47 691 l 1
 102 745 l 1
EndSplineSet
EndChar

StartChar: message alert
Encoding: 401 57618 159
Width: 1024
Flags: HW
LayerCount: 2
Fore
SplineSet
555 350 m 1
 555 606 l 1
 469 606 l 1
 469 350 l 1
 555 350 l 1
555 179 m 1
 555 264 l 1
 469 264 l 1
 469 179 l 1
 555 179 l 1
853 734 m 2
 900 734 939 695 939 648 c 2
 939 136 l 2
 939 89 900 51 853 51 c 2
 256 51 l 1
 85 -120 l 1
 85 648 l 2
 85 695 124 734 171 734 c 2
 853 734 l 2
EndSplineSet
EndChar

StartChar: message question
Encoding: 402 57619 160
Width: 1024
Flags: HW
LayerCount: 2
Fore
SplineSet
853 734 m 2
 900 734 939 695 939 648 c 2
 939 136 l 2
 939 89 900 51 853 51 c 2
 256 51 l 1
 85 -120 l 1
 85 648 l 2
 85 695 124 734 171 734 c 2
 853 734 l 2
555 222 m 1
 555 307 l 1
 469 307 l 1
 469 222 l 1
 555 222 l 1
516 525 m 0
 541 525 563 507 563 482 c 0
 563 459 550 438 529 431 c 1
 508 418 491 406 482 397 c 0
 473 384 469 371 469 350 c 1
 555 350 l 1
 555 363 554 371 563 380 c 0
 567 389 572 392 585 401 c 0
 602 410 618 418 631 435 c 0
 644 452 648 469 644 486 c 1
 644 554 588 584 516 584 c 0
 478 584 448 580 427 563 c 0
 406 546 392 520 388 490 c 1
 474 490 l 1
 474 503 477 512 486 516 c 0
 495 520 503 525 516 525 c 0
EndSplineSet
EndChar

StartChar: message plus
Encoding: 403 57620 161
Width: 1024
Flags: HW
LayerCount: 2
Fore
SplineSet
853 734 m 2
 900 734 939 695 939 648 c 2
 939 136 l 2
 939 89 900 51 853 51 c 2
 256 51 l 1
 85 -120 l 1
 85 648 l 2
 85 695 124 734 171 734 c 2
 853 734 l 2
469 563 m 1
 469 435 l 1
 341 435 l 1
 341 350 l 1
 469 350 l 1
 469 222 l 1
 555 222 l 1
 555 350 l 1
 683 350 l 1
 683 435 l 1
 555 435 l 1
 555 563 l 1
 469 563 l 1
EndSplineSet
EndChar

StartChar: message minus
Encoding: 404 57621 162
Width: 1024
Flags: HW
LayerCount: 2
Fore
SplineSet
853 734 m 2
 900 734 939 695 939 648 c 2
 939 136 l 2
 939 89 900 51 853 51 c 2
 256 51 l 1
 85 -120 l 1
 85 648 l 2
 85 695 124 734 171 734 c 2
 853 734 l 2
341 435 m 1
 341 350 l 1
 683 350 l 1
 683 435 l 1
 341 435 l 1
EndSplineSet
EndChar

StartChar: message outline
Encoding: 405 57622 163
Width: 1024
Flags: HW
LayerCount: 2
Fore
SplineSet
853 734 m 2
 900 734 939 695 939 648 c 2
 939 136 l 2
 939 89 900 51 853 51 c 2
 256 51 l 1
 85 -120 l 1
 85 648 l 2
 85 695 124 734 171 734 c 2
 853 734 l 2
853 136 m 1
 853 648 l 1
 171 648 l 1
 171 85 l 1
 222 136 l 1
 853 136 l 1
EndSplineSet
EndChar

StartChar: message off outline
Encoding: 406 57623 164
Width: 1024
Flags: HW
LayerCount: 2
Fore
SplineSet
307 648 m 1
 222 734 l 1
 853 734 l 2
 900 734 939 695 939 648 c 2
 939 136 l 2
 939 104 920 77 894 62 c 1
 819 136 l 1
 853 136 l 1
 853 648 l 1
 307 648 l 1
943 -97 m 1
 889 -151 l 1
 687 51 l 1
 256 51 l 1
 85 -120 l 1
 85 653 l 1
 47 691 l 1
 102 745 l 1
 305 542 507 339 710 136 c 1
 711 136 l 1
 796 51 l 1
 796 51 l 1
 943 -97 l 1
602 136 m 1
 171 568 l 1
 171 51 l 1
 256 136 l 1
 602 136 l 1
EndSplineSet
EndChar

StartChar: message alert outline
Encoding: 407 57624 165
Width: 1024
Flags: HW
LayerCount: 2
Fore
SplineSet
555 392 m 1
 469 392 l 1
 469 563 l 1
 555 563 l 1
 555 392 l 1
555 307 m 1
 555 222 l 1
 469 222 l 1
 469 307 l 1
 555 307 l 1
939 648 m 2
 939 136 l 2
 939 89 900 51 853 51 c 2
 256 51 l 1
 85 -120 l 1
 85 648 l 2
 85 695 124 734 171 734 c 2
 853 734 l 2
 900 734 939 695 939 648 c 2
853 648 m 1
 171 648 l 1
 171 85 l 1
 222 136 l 1
 853 136 l 1
 853 648 l 1
EndSplineSet
EndChar

StartChar: message question outline
Encoding: 408 57625 166
Width: 1024
Flags: HW
LayerCount: 2
Fore
SplineSet
853 734 m 2
 900 734 939 695 939 648 c 2
 939 136 l 2
 939 89 900 51 853 51 c 2
 256 51 l 1
 85 -120 l 1
 85 648 l 2
 85 695 124 734 171 734 c 2
 853 734 l 2
853 136 m 1
 853 648 l 1
 171 648 l 1
 171 85 l 1
 222 136 l 1
 853 136 l 1
572 482 m 0
 572 507 550 525 525 525 c 0
 512 525 504 520 495 516 c 0
 486 512 482 503 482 490 c 1
 397 490 l 1
 388 554 451 584 521 584 c 0
 559 584 593 576 610 563 c 0
 631 546 644 520 644 490 c 0
 644 449 613 414 580 401 c 1
 571 392 563 389 559 380 c 0
 559 371 555 363 555 350 c 1
 469 350 l 1
 469 371 474 384 491 397 c 0
 500 406 517 418 538 431 c 0
 554 439 572 456 572 482 c 0
469 307 m 1
 555 307 l 1
 555 222 l 1
 469 222 l 1
 469 307 l 1
EndSplineSet
EndChar

StartChar: message plus outline
Encoding: 409 57626 167
Width: 1024
Flags: HW
LayerCount: 2
Fore
SplineSet
853 734 m 2
 900 734 939 695 939 648 c 2
 939 136 l 2
 939 89 900 51 853 51 c 2
 256 51 l 1
 85 -120 l 1
 85 648 l 2
 85 695 124 734 171 734 c 2
 853 734 l 2
853 136 m 1
 853 648 l 1
 171 648 l 1
 171 85 l 1
 222 136 l 1
 853 136 l 1
683 435 m 1
 683 350 l 1
 555 350 l 1
 555 222 l 1
 469 222 l 1
 469 350 l 1
 341 350 l 1
 341 435 l 1
 469 435 l 1
 469 563 l 1
 555 563 l 1
 555 435 l 1
 683 435 l 1
EndSplineSet
EndChar

StartChar: message minus outline
Encoding: 410 57627 168
Width: 1024
Flags: HW
LayerCount: 2
Fore
SplineSet
853 734 m 2
 900 734 939 695 939 648 c 2
 939 136 l 2
 939 89 900 51 853 51 c 2
 256 51 l 1
 85 -120 l 1
 85 648 l 2
 85 695 124 734 171 734 c 2
 853 734 l 2
853 136 m 1
 853 648 l 1
 171 648 l 1
 171 85 l 1
 222 136 l 1
 853 136 l 1
341 435 m 1
 683 435 l 1
 683 350 l 1
 341 350 l 1
 341 435 l 1
EndSplineSet
EndChar

StartChar: plus box
Encoding: 411 57657 169
Width: 1024
Flags: HW
LayerCount: 2
Fore
SplineSet
725 264 m 1
 725 350 l 1
 555 350 l 1
 555 520 l 1
 469 520 l 1
 469 350 l 1
 299 350 l 1
 299 264 l 1
 469 264 l 1
 469 94 l 1
 555 94 l 1
 555 264 l 1
 725 264 l 1
811 691 m 2
 858 691 896 653 896 606 c 2
 896 8 l 2
 896 -39 858 -77 811 -77 c 2
 213 -77 l 2
 166 -77 128 -39 128 8 c 2
 128 606 l 2
 128 653 166 691 213 691 c 2
 811 691 l 2
EndSplineSet
EndChar

StartChar: plus box multiple
Encoding: 412 57658 170
Width: 1024
Flags: HW
LayerCount: 2
Fore
SplineSet
811 350 m 1
 811 435 l 1
 640 435 l 1
 640 606 l 1
 555 606 l 1
 555 435 l 1
 384 435 l 1
 384 350 l 1
 555 350 l 1
 555 179 l 1
 640 179 l 1
 640 350 l 1
 811 350 l 1
853 734 m 2
 900 734 939 695 939 648 c 2
 939 136 l 2
 939 89 900 51 853 51 c 2
 341 51 l 2
 294 51 256 89 256 136 c 2
 256 648 l 2
 256 695 294 734 341 734 c 2
 853 734 l 2
171 563 m 1
 171 -34 l 1
 768 -34 l 1
 768 -120 l 1
 171 -120 l 2
 124 -120 85 -81 85 -34 c 2
 85 563 l 1
 171 563 l 1
EndSplineSet
EndChar

StartChar: plus box outline
Encoding: 413 57659 171
Width: 1024
Flags: HW
LayerCount: 2
Fore
SplineSet
811 8 m 1
 811 606 l 1
 213 606 l 1
 213 8 l 1
 811 8 l 1
811 691 m 2
 858 691 896 653 896 606 c 2
 896 8 l 2
 896 -39 858 -77 811 -77 c 2
 213 -77 l 2
 166 -77 128 -39 128 8 c 2
 128 606 l 2
 128 653 166 691 213 691 c 2
 811 691 l 2
469 520 m 1
 555 520 l 1
 555 350 l 1
 725 350 l 1
 725 264 l 1
 555 264 l 1
 555 94 l 1
 469 94 l 1
 469 264 l 1
 299 264 l 1
 299 350 l 1
 469 350 l 1
 469 520 l 1
EndSplineSet
EndChar

StartChar: plus box multiple outline
Encoding: 414 57660 172
Width: 1024
Flags: HW
LayerCount: 2
Fore
SplineSet
768 350 m 1
 640 350 l 1
 640 222 l 1
 555 222 l 1
 555 350 l 1
 427 350 l 1
 427 435 l 1
 555 435 l 1
 555 563 l 1
 640 563 l 1
 640 435 l 1
 768 435 l 1
 768 350 l 1
853 648 m 1
 341 648 l 1
 341 136 l 1
 853 136 l 1
 853 648 l 1
853 734 m 2
 900 734 939 695 939 648 c 2
 939 136 l 2
 939 89 900 51 853 51 c 2
 341 51 l 2
 294 51 256 89 256 136 c 2
 256 648 l 2
 256 695 294 734 341 734 c 2
 853 734 l 2
171 563 m 1
 171 -34 l 1
 768 -34 l 1
 768 -120 l 1
 171 -120 l 2
 124 -120 85 -81 85 -34 c 2
 85 563 l 1
 171 563 l 1
EndSplineSet
EndChar

StartChar: gas station
Encoding: 415 57664 173
Width: 1024
Flags: HW
LayerCount: 2
Fore
SplineSet
768 392 m 0
 792 392 811 411 811 435 c 0
 811 459 792 478 768 478 c 0
 744 478 725 459 725 435 c 0
 725 411 744 392 768 392 c 0
512 392 m 1
 512 606 l 1
 256 606 l 1
 256 392 l 1
 512 392 l 1
844 511 m 1
 863 492 875 464 875 435 c 2
 875 30 l 2
 875 -29 827 -77 768 -77 c 0
 709 -77 661 -29 661 30 c 2
 661 243 l 1
 597 243 l 1
 597 -77 l 1
 171 -77 l 1
 171 606 l 2
 171 653 209 691 256 691 c 2
 512 691 l 2
 559 691 597 653 597 606 c 2
 597 307 l 1
 640 307 l 2
 687 307 725 269 725 222 c 2
 725 30 l 2
 725 6 744 -13 768 -13 c 0
 792 -13 811 6 811 30 c 2
 811 337 l 1
 798 331 783 328 768 328 c 0
 709 328 661 376 661 435 c 0
 661 481 690 520 730 534 c 1
 640 624 l 1
 685 670 l 1
 844 511 l 1
 844 511 l 1
EndSplineSet
EndChar

StartChar: gas station outline
Encoding: 416 57665 174
Width: 1024
Flags: HW
LayerCount: 2
Fore
SplineSet
844 511 m 1
 863 492 875 464 875 435 c 2
 875 30 l 2
 875 -29 827 -77 768 -77 c 0
 709 -77 661 -29 661 30 c 2
 661 243 l 1
 597 243 l 1
 597 -77 l 1
 171 -77 l 1
 171 606 l 2
 171 653 209 691 256 691 c 2
 512 691 l 2
 559 691 597 653 597 606 c 2
 597 307 l 1
 640 307 l 2
 687 307 725 269 725 222 c 2
 725 30 l 2
 725 6 744 -13 768 -13 c 0
 792 -13 811 6 811 30 c 2
 811 337 l 1
 798 331 783 328 768 328 c 0
 709 328 661 376 661 435 c 0
 661 481 690 519 730 534 c 1
 640 624 l 1
 685 670 l 1
 844 511 l 1
 844 511 l 1
512 8 m 1
 512 108 512 207 512 307 c 1
 256 307 l 1
 256 8 l 1
 512 8 l 1
512 392 m 1
 512 606 l 1
 256 606 l 1
 256 392 l 1
 512 392 l 1
768 392 m 0
 792 392 811 411 811 435 c 0
 811 459 792 478 768 478 c 0
 744 478 725 459 725 435 c 0
 725 411 744 392 768 392 c 0
EndSplineSet
EndChar

StartChar: gas station off
Encoding: 417 57666 175
Width: 1024
Flags: HW
LayerCount: 2
Fore
SplineSet
43 637 m 1
 97 691 l 1
 896 -108 l 1
 842 -162 l 1
 756 -77 l 1
 707 -71 667 -31 661 18 c 1
 597 82 l 1
 597 -77 l 1
 171 -77 l 1
 171 509 l 1
 43 637 l 1
768 392 m 0
 791 392 811 412 811 435 c 0
 811 458 791 478 768 478 c 0
 745 478 725 458 725 435 c 0
 725 412 745 392 768 392 c 0
512 392 m 1
 512 606 l 1
 291 606 l 1
 216 681 l 1
 228 687 241 691 256 691 c 2
 512 691 l 2
 559 691 597 653 597 606 c 2
 597 307 l 1
 640 307 l 2
 687 307 725 269 725 222 c 2
 725 171 l 1
 504 392 l 1
 512 392 l 1
256 392 m 1
 287 392 l 1
 256 423 l 1
 256 392 l 1
844 511 m 1
 863 492 875 464 875 435 c 2
 875 22 l 1
 811 86 l 1
 811 337 l 1
 798 331 783 328 768 328 c 0
 709 328 661 376 661 435 c 0
 661 481 690 519 730 534 c 1
 640 624 l 1
 685 670 l 1
 844 511 l 1
 844 511 l 1
EndSplineSet
EndChar

StartChar: gas station off outline
Encoding: 418 57667 176
Width: 1024
Flags: HW
LayerCount: 2
Fore
SplineSet
43 637 m 1
 97 691 l 1
 363 425 630 158 896 -108 c 1
 842 -162 l 1
 756 -77 l 1
 707 -71 667 -31 661 18 c 1
 597 82 l 1
 597 -77 l 1
 171 -77 l 1
 171 509 l 1
 43 637 l 1
844 511 m 1
 863 492 875 464 875 435 c 2
 875 22 l 1
 811 86 l 1
 811 337 l 1
 798 331 783 328 768 328 c 0
 709 328 661 376 661 435 c 0
 661 481 690 519 730 534 c 1
 640 624 l 1
 685 670 l 1
 844 511 l 1
 844 511 l 1
504 392 m 1
 512 392 l 1
 512 606 l 1
 291 606 l 1
 216 681 l 1
 228 687 241 691 256 691 c 2
 512 691 l 2
 559 691 597 653 597 606 c 2
 597 307 l 1
 640 307 l 2
 687 307 725 269 725 222 c 2
 725 171 l 1
 504 392 l 1
256 392 m 1
 287 392 l 1
 256 423 l 1
 256 392 l 1
256 307 m 1
 256 8 l 1
 512 8 l 1
 512 167 l 1
 372 307 l 1
 256 307 l 1
768 392 m 0
 791 392 811 412 811 435 c 0
 811 458 791 478 768 478 c 0
 745 478 725 458 725 435 c 0
 725 412 745 392 768 392 c 0
EndSplineSet
EndChar

StartChar: engine outline
Encoding: 419 57668 177
Width: 1024
Flags: HW
LayerCount: 2
Fore
SplineSet
341 392 m 1
 299 350 l 1
 299 136 l 1
 384 136 l 1
 469 51 l 1
 683 51 l 1
 683 392 l 1
 341 392 l 1
299 648 m 1
 640 648 l 1
 640 563 l 1
 512 563 l 1
 512 478 l 1
 768 478 l 1
 768 307 l 1
 853 307 l 1
 853 435 l 1
 981 435 l 1
 981 8 l 1
 853 8 l 1
 853 136 l 1
 768 136 l 1
 768 -34 l 1
 427 -34 l 1
 341 51 l 1
 213 51 l 1
 213 179 l 1
 128 179 l 1
 128 51 l 1
 43 51 l 1
 43 392 l 1
 128 392 l 1
 128 264 l 1
 213 264 l 1
 213 392 l 1
 299 478 l 1
 427 478 l 1
 427 563 l 1
 299 563 l 1
 299 648 l 1
EndSplineSet
EndChar

StartChar: engine off outline
Encoding: 420 57669 178
Width: 1024
Flags: HW
LayerCount: 2
Fore
SplineSet
107 658 m 1
 161 712 l 1
 960 -86 l 1
 906 -141 l 1
 768 -3 l 1
 768 -34 l 1
 427 -34 l 1
 341 51 l 1
 213 51 l 1
 213 179 l 1
 128 179 l 1
 128 51 l 1
 43 51 l 1
 43 392 l 1
 128 392 l 1
 128 264 l 1
 213 264 l 1
 213 392 l 1
 293 472 l 1
 107 658 l 1
683 51 m 1
 683 82 l 1
 372 392 l 1
 341 392 l 1
 299 350 l 1
 299 136 l 1
 384 136 l 1
 469 51 l 1
 683 51 l 1
981 435 m 1
 981 8 l 1
 974 8 l 1
 683 299 l 1
 683 392 l 1
 590 392 l 1
 334 648 l 1
 640 648 l 1
 640 563 l 1
 512 563 l 1
 512 478 l 1
 768 478 l 1
 768 307 l 1
 853 307 l 1
 853 435 l 1
 981 435 l 1
EndSplineSet
EndChar

StartChar: oil
Encoding: 421 57670 179
Width: 1024
Flags: HW
LayerCount: 2
Fore
SplineSet
939 286 m 1
 939 286 1024 193 1024 136 c 0
 1024 89 986 51 939 51 c 0
 892 51 853 89 853 136 c 0
 853 193 939 286 939 286 c 1
256 563 m 2
 427 563 l 2
 451 563 469 544 469 520 c 0
 469 496 451 478 427 478 c 2
 384 478 l 1
 384 392 l 1
 469 392 l 2
 501 392 528 376 543 350 c 1
 821 510 l 1
 960 429 l 2
 981 417 988 392 976 371 c 0
 964 351 938 344 917 356 c 2
 828 407 l 1
 672 138 l 2
 657 112 629 94 597 94 c 2
 213 94 l 2
 166 94 128 132 128 179 c 2
 128 307 l 2
 128 354 166 392 213 392 c 2
 299 392 l 1
 299 478 l 1
 256 478 l 2
 232 478 213 496 213 520 c 0
 213 544 232 563 256 563 c 2
213 307 m 1
 213 179 l 1
 597 179 l 1
 685 331 l 1
 538 246 l 1
 499 307 l 1
 213 307 l 1
16 426 m 2
 89 499 l 2
 106 516 132 516 149 499 c 0
 166 482 166 456 149 439 c 2
 76 366 l 2
 59 350 33 350 16 366 c 0
 0 383 0 409 16 426 c 2
EndSplineSet
EndChar

StartChar: oil level
Encoding: 422 57671 180
Width: 1024
Flags: HW
LayerCount: 2
Fore
SplineSet
171 -120 m 0
 104 -120 70 -79 43 -52 c 1
 43 44 l 1
 77 33 101 11 116 -4 c 0
 137 -25 142 -34 171 -34 c 0
 200 -34 205 -25 226 -4 c 0
 247 17 284 51 341 51 c 0
 398 51 436 17 457 -4 c 0
 477 -24 482 -34 512 -34 c 0
 541 -34 546 -25 567 -4 c 0
 588 17 626 51 683 51 c 0
 740 51 777 17 798 -4 c 0
 819 -25 824 -34 853 -34 c 0
 882 -34 887 -25 908 -4 c 0
 923 11 947 33 981 44 c 1
 981 -52 l 1
 954 -79 920 -120 853 -120 c 0
 796 -120 759 -86 738 -65 c 0
 717 -44 712 -34 683 -34 c 0
 654 -34 649 -44 628 -65 c 0
 607 -86 569 -120 512 -120 c 0
 456 -120 418 -86 396 -65 c 0
 375 -44 370 -34 341 -34 c 0
 312 -34 307 -44 286 -65 c 0
 265 -86 228 -120 171 -120 c 0
939 371 m 1
 939 371 1024 279 1024 222 c 0
 1024 175 986 136 939 136 c 0
 892 136 853 175 853 222 c 0
 853 279 939 371 939 371 c 1
960 515 m 2
 981 503 988 477 976 456 c 0
 964 436 938 429 917 441 c 2
 828 493 l 1
 672 223 l 2
 657 197 629 179 597 179 c 2
 213 179 l 2
 166 179 128 217 128 264 c 2
 128 392 l 2
 128 439 166 478 213 478 c 2
 299 478 l 1
 299 563 l 1
 256 563 l 2
 233 563 213 583 213 606 c 0
 213 629 233 648 256 648 c 2
 427 648 l 2
 450 648 469 629 469 606 c 0
 469 583 450 563 427 563 c 2
 384 563 l 1
 384 478 l 1
 469 478 l 2
 501 478 528 461 543 435 c 1
 821 595 l 1
 960 515 l 2
597 264 m 1
 685 417 l 1
 538 331 l 1
 499 392 l 1
 213 392 l 1
 213 264 l 1
 597 264 l 1
149 524 m 1
 76 451 l 2
 69 445 60 441 49 441 c 0
 25 441 6 460 6 484 c 0
 6 495 10 504 16 511 c 2
 89 584 l 2
 97 592 107 597 119 597 c 0
 153 597 177 554 149 524 c 1
EndSplineSet
EndChar

StartChar: temperature celsius
Encoding: 423 57672 181
Width: 1024
Flags: HW
LayerCount: 2
Fore
SplineSet
704 606 m 0
 770 606 832 586 883 551 c 1
 833 428 l 1
 799 460 753 479 703 479 c 0
 598 479 512 393 512 288 c 0
 512 287 512 287 512 286 c 0
 512 285 512 285 512 284 c 0
 512 179 598 93 703 93 c 0
 747 93 788 108 820 133 c 1
 869 11 l 1
 821 -18 765 -34 705 -34 c 0
 704 -34 l 0
 527 -34 384 109 384 286 c 0
 384 463 527 606 704 606 c 0
256 691 m 0
 327 691 384 634 384 563 c 0
 384 492 327 435 256 435 c 0
 185 435 128 492 128 563 c 0
 128 634 185 691 256 691 c 0
256 606 m 0
 232 606 213 587 213 563 c 0
 213 539 232 520 256 520 c 0
 280 520 299 539 299 563 c 0
 299 587 280 606 256 606 c 0
EndSplineSet
EndChar

StartChar: temperature fahrenheit
Encoding: 424 57673 182
Width: 1024
Flags: HW
LayerCount: 2
Fore
SplineSet
469 -34 m 1
 469 606 l 1
 853 606 l 1
 853 478 l 1
 597 478 l 1
 597 350 l 1
 811 350 l 1
 811 222 l 1
 597 222 l 1
 597 -34 l 1
 469 -34 l 1
256 691 m 0
 327 691 384 634 384 563 c 0
 384 492 327 435 256 435 c 0
 185 435 128 492 128 563 c 0
 128 634 185 691 256 691 c 0
256 606 m 0
 232 606 213 587 213 563 c 0
 213 539 232 520 256 520 c 0
 280 520 299 539 299 563 c 0
 299 587 280 606 256 606 c 0
EndSplineSet
EndChar

StartChar: coolant temperature
Encoding: 425 57674 183
Width: 1024
Flags: HW
LayerCount: 2
Fore
SplineSet
491 776 m 0
 526 776 555 747 555 712 c 2
 555 691 l 1
 725 691 l 1
 725 606 l 1
 555 606 l 1
 555 520 l 1
 725 520 l 1
 725 435 l 1
 555 435 l 1
 555 350 l 1
 725 350 l 1
 725 264 l 1
 555 264 l 1
 555 200 l 1
 582 179 597 149 597 115 c 0
 597 56 550 8 491 8 c 0
 432 8 384 56 384 115 c 0
 384 149 400 180 427 200 c 1
 427 712 l 2
 427 747 456 776 491 776 c 0
299 76 m 1
 272 49 238 8 171 8 c 0
 114 8 76 42 55 63 c 0
 34 84 29 94 0 94 c 1
 0 179 l 1
 57 179 95 145 116 124 c 0
 137 103 142 94 171 94 c 0
 200 94 205 103 226 124 c 0
 241 139 265 161 299 172 c 1
 299 76 l 1
683 179 m 1
 740 179 777 145 798 124 c 0
 819 103 824 94 853 94 c 0
 882 94 887 103 908 124 c 0
 929 145 967 179 1024 179 c 1
 1024 94 l 1
 995 94 990 84 969 63 c 0
 948 42 910 8 853 8 c 0
 796 8 759 42 738 63 c 0
 717 84 712 94 683 94 c 1
 683 179 l 1
171 -205 m 0
 104 -205 70 -164 43 -137 c 1
 43 -41 l 1
 77 -52 101 -74 116 -89 c 0
 137 -110 142 -120 171 -120 c 0
 200 -120 205 -110 226 -89 c 0
 247 -68 284 -34 341 -34 c 0
 398 -34 436 -68 457 -89 c 0
 477 -109 482 -120 512 -120 c 0
 541 -120 546 -110 567 -89 c 0
 588 -68 626 -34 683 -34 c 0
 740 -34 777 -68 798 -89 c 0
 819 -110 824 -120 853 -120 c 0
 882 -120 887 -110 908 -89 c 0
 923 -74 947 -52 981 -41 c 1
 981 -137 l 1
 954 -164 920 -205 853 -205 c 0
 796 -205 759 -171 738 -150 c 0
 717 -129 712 -120 683 -120 c 0
 654 -120 649 -129 628 -150 c 0
 607 -171 569 -205 512 -205 c 0
 456 -205 418 -171 396 -150 c 0
 375 -129 370 -120 341 -120 c 0
 312 -120 307 -129 286 -150 c 0
 265 -171 228 -205 171 -205 c 0
EndSplineSet
EndChar

StartChar: oil temperature
Encoding: 426 57675 184
Width: 1024
Flags: HW
LayerCount: 2
Fore
SplineSet
427 606 m 1
 427 520 l 1
 555 520 l 1
 555 435 l 1
 427 435 l 1
 427 350 l 1
 555 350 l 1
 555 264 l 1
 427 264 l 1
 427 166 l 1
 453 153 469 124 469 94 c 0
 469 47 431 8 384 8 c 0
 337 8 299 47 299 94 c 0
 299 124 315 153 341 166 c 1
 341 734 l 2
 341 760 358 776 384 776 c 0
 410 776 427 760 427 734 c 2
 427 691 l 1
 555 691 l 1
 555 606 l 1
 427 606 l 1
939 72 m 1
 939 72 1024 -22 1024 -77 c 0
 1024 -124 986 -162 939 -162 c 0
 892 -162 853 -124 853 -77 c 0
 853 -22 939 72 939 72 c 1
977 158 m 0
 964 137 938 132 917 141 c 1
 828 192 l 1
 674 -77 l 1
 661 -103 631 -120 597 -120 c 2
 213 -120 l 2
 166 -120 128 -81 128 -34 c 2
 128 94 l 2
 128 141 166 179 213 179 c 1
 213 -34 l 1
 597 -34 l 1
 687 119 l 1
 555 42 l 1
 555 145 l 1
 819 298 l 1
 960 217 l 2
 981 204 986 179 977 158 c 0
149 226 m 2
 77 153 l 2
 60 136 34 136 17 153 c 0
 0 170 0 196 17 213 c 2
 90 286 l 2
 107 303 132 303 149 286 c 0
 166 269 166 243 149 226 c 2
EndSplineSet
EndChar

StartChar: view grid
Encoding: 427 57688 185
Width: 1024
Flags: HW
LayerCount: 2
Fore
SplineSet
128 350 m 1
 128 691 l 1
 469 691 l 1
 469 350 l 1
 128 350 l 1
128 -77 m 1
 128 264 l 1
 469 264 l 1
 469 -77 l 1
 128 -77 l 1
555 -77 m 1
 555 264 l 1
 896 264 l 1
 896 -77 l 1
 555 -77 l 1
555 691 m 1
 896 691 l 1
 896 350 l 1
 555 350 l 1
 555 691 l 1
EndSplineSet
EndChar

StartChar: view grid outline
Encoding: 428 57689 186
Width: 1024
Flags: HW
LayerCount: 2
Fore
SplineSet
128 350 m 1
 128 691 l 1
 469 691 l 1
 469 350 l 1
 128 350 l 1
213 606 m 1
 213 435 l 1
 384 435 l 1
 384 606 l 1
 213 606 l 1
555 -77 m 1
 555 264 l 1
 896 264 l 1
 896 -77 l 1
 555 -77 l 1
640 179 m 1
 640 8 l 1
 811 8 l 1
 811 179 l 1
 640 179 l 1
128 -77 m 1
 128 264 l 1
 469 264 l 1
 469 -77 l 1
 128 -77 l 1
213 179 m 1
 213 8 l 1
 384 8 l 1
 384 179 l 1
 213 179 l 1
555 691 m 1
 896 691 l 1
 896 350 l 1
 555 350 l 1
 555 691 l 1
811 435 m 1
 811 606 l 1
 640 606 l 1
 640 435 l 1
 811 435 l 1
EndSplineSet
EndChar

StartChar: view grid plus
Encoding: 429 57690 187
Width: 1024
Flags: HW
LayerCount: 2
Fore
SplineSet
555 691 m 1
 896 691 l 1
 896 350 l 1
 555 350 l 1
 555 691 l 1
128 -77 m 1
 128 264 l 1
 469 264 l 1
 469 -77 l 1
 128 -77 l 1
128 691 m 1
 469 691 l 1
 469 350 l 1
 128 350 l 1
 128 691 l 1
555 136 m 1
 683 136 l 1
 683 264 l 1
 768 264 l 1
 768 136 l 1
 896 136 l 1
 896 51 l 1
 768 51 l 1
 768 -77 l 1
 683 -77 l 1
 683 51 l 1
 555 51 l 1
 555 136 l 1
EndSplineSet
EndChar

StartChar: view grid plus outline
Encoding: 430 57691 188
Width: 1024
Flags: HW
LayerCount: 2
Fore
SplineSet
128 -77 m 1
 128 264 l 1
 469 264 l 1
 469 -77 l 1
 128 -77 l 1
213 179 m 1
 213 8 l 1
 384 8 l 1
 384 179 l 1
 213 179 l 1
128 350 m 1
 128 691 l 1
 469 691 l 1
 469 350 l 1
 128 350 l 1
213 606 m 1
 213 435 l 1
 384 435 l 1
 384 606 l 1
 213 606 l 1
555 691 m 1
 896 691 l 1
 896 350 l 1
 555 350 l 1
 555 691 l 1
811 435 m 1
 811 606 l 1
 640 606 l 1
 640 435 l 1
 811 435 l 1
768 136 m 1
 896 136 l 1
 896 51 l 1
 768 51 l 1
 768 -77 l 1
 683 -77 l 1
 683 51 l 1
 555 51 l 1
 555 136 l 1
 683 136 l 1
 683 264 l 1
 768 264 l 1
 768 136 l 1
EndSplineSet
EndChar

StartChar: history
Encoding: 431 57700 189
Width: 1024
Flags: HW
LayerCount: 2
Fore
SplineSet
576 478 m 1
 576 296 l 1
 725 208 l 1
 695 156 l 1
 512 264 l 1
 512 478 l 1
 576 478 l 1
555 691 m 0
 767 691 939 519 939 307 c 0
 939 95 767 -77 555 -77 c 0
 553 -77 l 0
 447 -77 352 -34 283 36 c 1
 344 96 l 1
 398 42 472 8 554 8 c 0
 555 8 l 0
 720 8 853 142 853 307 c 0
 853 472 720 606 555 606 c 0
 390 606 256 472 256 307 c 1
 384 307 l 1
 212 135 l 1
 43 307 l 1
 171 307 l 1
 171 519 343 691 555 691 c 0
EndSplineSet
EndChar

StartChar: car battery
Encoding: 432 57704 190
Width: 1024
Flags: HW
LayerCount: 2
Fore
SplineSet
171 691 m 1
 427 691 l 1
 427 563 l 1
 597 563 l 1
 597 691 l 1
 853 691 l 1
 853 563 l 1
 981 563 l 1
 981 -34 l 1
 43 -34 l 1
 43 563 l 1
 171 563 l 1
 171 691 l 1
128 478 m 1
 128 51 l 1
 896 51 l 1
 896 478 l 1
 128 478 l 1
640 392 m 1
 725 392 l 1
 725 307 l 1
 811 307 l 1
 811 222 l 1
 725 222 l 1
 725 136 l 1
 640 136 l 1
 640 222 l 1
 555 222 l 1
 555 307 l 1
 640 307 l 1
 640 392 l 1
213 307 m 1
 469 307 l 1
 469 222 l 1
 213 222 l 1
 213 307 l 1
EndSplineSet
EndChar

StartChar: sports car icon
Encoding: 433 57708 191
Width: 1024
Flags: HW
LayerCount: 2
Fore
SplineSet
905 252 m 0
 905 205 866 166 819 166 c 0
 772 166 734 205 734 252 c 0
 734 299 772 337 819 337 c 0
 866 337 905 299 905 252 c 0
640 375 m 0
 631 354 645 349 666 358 c 0
 683 367 700 379 717 388 c 0
 726 392 730 401 730 405 c 0
 726 418 704 422 687 426 c 0
 666 430 666 430 653 409 c 0
 649 400 644 388 640 375 c 0
209 294 m 0
 188 294 171 277 171 256 c 0
 171 235 188 217 209 217 c 0
 230 217 247 235 247 256 c 0
 247 277 230 294 209 294 c 0
819 294 m 0
 798 294 781 277 781 256 c 0
 781 235 798 217 819 217 c 0
 840 217 858 235 858 256 c 0
 858 277 840 294 819 294 c 0
388 350 m 1
 580 350 l 2
 597 350 610 358 619 371 c 1
 640 431 l 1
 572 431 533 435 465 405 c 0
 435 388 409 376 388 350 c 1
294 252 m 0
 294 205 256 166 209 166 c 0
 162 166 124 205 124 252 c 1
 120 299 162 337 209 337 c 0
 256 337 294 299 294 252 c 0
439 414 m 0
 541 457 623 461 734 431 c 0
 768 418 798 406 832 397 c 0
 866 388 1007 379 1011 358 c 1
 977 316 l 1
 990 303 999 290 1003 269 c 0
 1003 256 999 243 990 234 c 0
 981 217 947 204 934 213 c 0
 930 217 926 221 926 230 c 0
 926 422 692 401 713 209 c 1
 303 209 l 1
 380 405 55 405 115 217 c 1
 94 196 47 230 17 298 c 1
 26 307 34 311 43 320 c 1
 43 320 l 1
 43 324 47 337 60 341 c 0
 120 379 273 380 346 367 c 1
 376 384 405 401 439 414 c 0
EndSplineSet
EndChar

StartChar: car light high
Encoding: 434 57712 192
Width: 1024
Flags: HW
LayerCount: 2
Fore
SplineSet
555 614 m 0
 726 614 939 499 939 307 c 0
 939 115 726 0 555 -0 c 0
 384 0 384 614 555 614 c 0
559 85 m 1
 683 89 853 166 853 307 c 0
 853 448 683 525 559 529 c 1
 542 512 512 435 512 307 c 0
 512 179 542 102 559 85 c 1
85 606 m 1
 405 606 l 1
 396 589 384 572 380 546 c 0
 376 537 375 529 371 520 c 1
 85 520 l 1
 85 606 l 1
341 350 m 1
 85 350 l 1
 85 435 l 1
 350 435 l 1
 346 409 345 380 341 350 c 1
371 94 m 1
 380 60 393 34 410 8 c 1
 90 8 l 1
 90 94 l 1
 371 94 l 1
350 179 m 1
 85 179 l 1
 85 264 l 1
 341 264 l 1
 345 234 346 205 350 179 c 1
EndSplineSet
EndChar

StartChar: car light alert
Encoding: 435 57713 193
Width: 1024
Flags: HW
LayerCount: 2
Fore
SplineSet
981 520 m 1
 981 264 l 1
 896 264 l 1
 896 520 l 1
 981 520 l 1
896 94 m 1
 896 179 l 1
 981 179 l 1
 981 94 l 1
 896 94 l 1
43 435 m 1
 222 435 l 1
 218 409 217 380 213 350 c 1
 43 350 l 1
 43 435 l 1
213 264 m 1
 217 234 218 205 222 179 c 1
 43 179 l 1
 43 264 l 1
 213 264 l 1
252 546 m 0
 248 537 247 529 243 520 c 1
 43 520 l 1
 43 606 l 1
 277 606 l 1
 268 589 256 572 252 546 c 0
43 94 m 1
 243 94 l 1
 252 60 265 34 282 8 c 1
 43 8 l 1
 43 94 l 1
427 614 m 0
 598 614 811 499 811 307 c 0
 811 115 598 0 427 -0 c 0
 256 0 256 614 427 614 c 0
431 85 m 0
 414 102 384 179 384 307 c 0
 384 435 414 512 431 529 c 1
 555 525 725 448 725 307 c 0
 725 166 555 89 431 85 c 1024
EndSplineSet
EndChar

StartChar: car light dimmed
Encoding: 436 57714 194
Width: 1024
Flags: HW
LayerCount: 2
Fore
SplineSet
555 614 m 0
 726 614 939 499 939 307 c 0
 939 115 726 0 555 -0 c 0
 384 0 384 614 555 614 c 0
559 85 m 1
 678 89 853 166 853 307 c 0
 853 448 683 525 559 529 c 1
 542 512 512 435 512 307 c 0
 512 179 542 102 559 85 c 1
341 371 m 1
 341 350 337 328 337 307 c 0
 337 298 337 290 337 281 c 1
 102 222 l 1
 81 303 l 1
 341 371 l 1
85 520 m 1
 401 601 l 1
 384 576 376 539 367 503 c 1
 107 439 l 1
 85 520 l 1
350 158 m 1
 354 128 362 98 371 77 c 1
 102 8 l 1
 81 89 l 1
 350 158 l 1
EndSplineSet
EndChar

StartChar: car light fog
Encoding: 437 57715 195
Width: 1024
Flags: HW
LayerCount: 2
Fore
SplineSet
555 614 m 0
 726 614 939 499 939 307 c 0
 939 115 726 0 555 -0 c 0
 384 0 384 614 555 614 c 0
559 85 m 1
 683 89 853 166 853 307 c 0
 853 448 683 525 559 529 c 1
 542 512 512 435 512 307 c 0
 512 179 542 102 559 85 c 1
256 478 m 1
 256 350 l 1
 341 350 l 1
 341 264 l 1
 256 264 l 1
 256 136 l 1
 358 136 l 1
 367 106 375 77 384 51 c 1
 256 51 l 1
 256 -77 l 1
 171 -77 l 1
 171 51 l 1
 85 51 l 1
 85 136 l 1
 171 136 l 1
 171 264 l 1
 85 264 l 1
 85 350 l 1
 171 350 l 1
 171 478 l 1
 85 478 l 1
 85 563 l 1
 171 563 l 1
 171 691 l 1
 256 691 l 1
 256 563 l 1
 384 563 l 1
 384 559 380 555 380 546 c 0
 371 525 362 504 358 478 c 1
 256 478 l 1
EndSplineSet
EndChar

StartChar: car parking lights
Encoding: 438 57716 196
Width: 1024
Flags: HW
LayerCount: 2
Fore
SplineSet
311 426 m 1
 294 366 294 248 311 188 c 1
 345 205 384 243 384 307 c 0
 384 371 345 409 311 426 c 1
277 520 m 0
 362 520 469 439 469 307 c 0
 469 175 362 94 277 94 c 0
 192 94 192 520 277 520 c 0
713 426 m 1
 679 409 640 371 640 307 c 0
 640 243 679 205 713 188 c 1
 726 248 726 366 713 426 c 1
747 520 m 0
 832 520 832 94 747 94 c 0
 662 94 555 175 555 307 c 0
 555 439 662 520 747 520 c 0
209 554 m 1
 192 537 180 508 171 478 c 1
 60 550 l 1
 107 623 l 1
 209 554 l 1
853 478 m 1
 844 512 828 537 815 554 c 1
 917 623 l 1
 964 550 l 1
 853 478 l 1
171 136 m 1
 180 102 196 77 209 60 c 1
 107 -9 l 1
 60 64 l 1
 171 136 l 1
875 350 m 1
 1024 350 l 1
 1024 264 l 1
 875 264 l 1
 875 350 l 1
815 60 m 1
 832 77 844 106 853 136 c 1
 964 64 l 1
 917 -9 l 1
 815 60 l 1
149 350 m 1
 149 264 l 1
 0 264 l 1
 0 350 l 1
 149 350 l 1
EndSplineSet
EndChar

StartChar: car seat
Encoding: 439 57720 197
Width: 1024
Flags: HW
LayerCount: 2
Fore
SplineSet
299 51 m 1
 299 51 171 392 171 563 c 0
 171 734 256 734 256 734 c 1
 299 734 l 1
 299 734 341 734 341 691 c 0
 341 648 299 648 299 563 c 0
 299 478 427 392 427 264 c 0
 427 136 299 51 299 51 c 1
512 94 m 1
 512 89 l 1
 725 89 l 2
 772 89 811 51 811 4 c 2
 811 -39 l 2
 811 -86 772 -124 725 -124 c 2
 469 -124 l 2
 384 -124 341 -47 341 -47 c 1
 332 -34 328 -22 341 -13 c 2
 341 -13 469 94 512 94 c 1
EndSplineSet
EndChar

StartChar: car seat heater
Encoding: 440 57721 198
Width: 1024
Flags: HW
LayerCount: 2
Fore
SplineSet
213 51 m 1
 213 51 85 392 85 563 c 0
 85 734 171 734 171 734 c 1
 213 734 l 1
 213 734 256 734 256 691 c 0
 256 648 213 648 213 563 c 0
 213 478 341 392 341 264 c 0
 341 136 213 51 213 51 c 1
640 94 m 0
 687 94 725 55 725 8 c 2
 725 -34 l 2
 725 -81 687 -120 640 -120 c 2
 384 -120 l 2
 299 -120 256 -43 256 -43 c 1
 247 -34 243 -18 256 -9 c 2
 256 -9 384 98 427 98 c 2
 640 98 l 1025
585 674 m 1
 525 529 l 1
 585 384 l 1
 499 179 l 1
 427 239 l 1
 486 384 l 1
 427 529 l 1
 512 734 l 1
 585 674 l 1
764 674 m 1
 704 529 l 1
 764 384 l 1
 678 179 l 1
 606 239 l 1
 666 384 l 1
 606 529 l 1
 691 734 l 1
 764 674 l 1
939 674 m 1
 879 529 l 1
 939 384 l 1
 853 179 l 1
 781 239 l 1
 841 384 l 1
 781 529 l 1
 866 734 l 1
 939 674 l 1025
EndSplineSet
EndChar

StartChar: car seat cooler
Encoding: 441 57722 199
Width: 1024
Flags: HW
LayerCount: 2
Fore
SplineSet
887 384 m 1
 900 337 l 1
 853 324 l 1
 870 277 l 1
 823 264 l 1
 806 324 l 1
 755 354 l 1
 691 316 l 1
 691 260 l 1
 734 217 l 1
 700 183 l 1
 666 217 l 1
 631 183 l 1
 597 217 l 1
 640 260 l 1
 640 316 l 1
 576 354 l 1
 525 324 l 1
 508 264 l 1
 461 277 l 1
 474 320 l 1
 427 333 l 1
 439 388 l 1
 499 371 l 1
 550 401 l 1
 550 473 l 1
 499 503 l 1
 439 486 l 1
 427 533 l 1
 474 542 l 1
 461 589 l 1
 508 601 l 1
 521 542 l 1
 572 512 l 1
 636 550 l 1
 636 606 l 1
 593 648 l 1
 627 682 l 1
 661 648 l 1
 695 682 l 1
 730 648 l 1
 687 606 l 1
 687 550 l 1
 751 512 l 1
 802 542 l 1
 819 601 l 1
 866 589 l 1
 853 542 l 1
 900 529 l 1
 887 482 l 1
 828 499 l 1
 777 469 l 1
 777 397 l 1
 828 367 l 1
 887 384 l 1
597 469 m 1
 597 397 l 1
 661 358 l 1
 725 397 l 1
 725 469 l 1
 661 508 l 1
 597 469 l 1
213 51 m 1
 213 51 85 392 85 563 c 0
 85 734 171 734 171 734 c 1
 213 734 l 1
 213 734 256 734 256 691 c 0
 256 648 213 648 213 563 c 0
 213 478 341 392 341 264 c 0
 341 136 213 51 213 51 c 1
640 94 m 1
 687 94 725 55 725 8 c 2
 725 -34 l 2
 725 -81 687 -120 640 -120 c 2
 384 -120 l 2
 299 -120 256 -43 256 -43 c 1
 247 -34 243 -18 256 -9 c 2
 256 -9 384 98 427 98 c 2
 640 98 l 1
 640 94 l 1
EndSplineSet
EndChar

StartChar: car door
Encoding: 442 57726 200
Width: 1024
Flags: HW
LayerCount: 2
Fore
SplineSet
811 222 m 1
 683 222 l 1
 683 136 l 1
 811 136 l 1
 811 222 l 1
939 -77 m 1
 128 -77 l 1
 128 350 l 1
 469 691 l 1
 896 691 l 2
 920 691 939 672 939 648 c 2
 939 -77 l 1
505 606 m 1
 249 350 l 1
 853 350 l 1
 853 606 l 1
 505 606 l 1
EndSplineSet
EndChar

StartChar: car door lock
Encoding: 443 57727 201
Width: 1024
Flags: HW
LayerCount: 2
Fore
SplineSet
333 94 m 1
 359 94 384 68 384 38 c 2
 384 -111 l 2
 384 -137 359 -162 329 -162 c 2
 94 -162 l 2
 68 -162 43 -137 43 -107 c 2
 43 42 l 2
 43 68 68 94 94 94 c 1
 94 158 l 2
 94 218 153 264 213 264 c 0
 273 264 333 218 333 158 c 2
 333 94 l 1
277 94 m 1
 277 158 l 2
 277 192 247 213 213 213 c 0
 179 213 149 192 149 158 c 2
 149 94 l 1
 277 94 l 1
896 691 m 2
 919 691 939 671 939 648 c 2
 939 -77 l 1
 469 -77 l 1
 469 38 l 2
 469 82 449 121 418 147 c 1
 418 158 l 2
 418 262 324 350 213 350 c 0
 183 350 154 343 128 331 c 1
 128 350 l 1
 469 691 l 1
 896 691 l 2
811 136 m 1
 811 222 l 1
 683 222 l 1
 683 136 l 1
 811 136 l 1
853 350 m 1
 853 606 l 1
 505 606 l 1
 249 350 l 1
 853 350 l 1
EndSplineSet
EndChar

StartChar: white balance sunny
Encoding: 444 57493 202
Width: 1024
Flags: HW
LayerCount: 2
Fore
SplineSet
151 4 m 1
 228 81 l 1
 288 21 l 1
 212 -56 l 1
 151 4 l 1
512 563 m 0
 653 563 768 449 768 307 c 0
 768 166 653 51 512 51 c 0
 371 51 256 166 256 307 c 0
 256 448 371 563 512 563 c 0
853 264 m 1
 853 350 l 1
 981 350 l 1
 981 264 l 1
 853 264 l 1
736 21 m 1
 796 81 l 1
 873 4 l 1
 812 -56 l 1
 736 21 l 1
873 606 m 1
 796 528 l 1
 736 589 l 1
 812 665 l 1
 873 606 l 1
555 776 m 1
 555 648 l 1
 469 648 l 1
 469 776 l 1
 555 776 l 1
288 589 m 1
 228 528 l 1
 151 606 l 1
 212 665 l 1
 288 589 l 1
43 264 m 1
 43 350 l 1
 171 350 l 1
 171 264 l 1
 43 264 l 1
555 -34 m 1
 555 -162 l 1
 469 -162 l 1
 469 -34 l 1
 555 -34 l 1
EndSplineSet
EndChar

StartChar: compass
Encoding: 445 57471 203
Width: 1024
Flags: HW
LayerCount: 2
Fore
SplineSet
512 -162 m 0
 252 -162 43 47 43 307 c 0
 43 486 145 652 307 729 c 0
 328 738 354 729 363 708 c 0
 372 687 362 662 341 653 c 0
 213 589 128 452 128 307 c 0
 128 94 299 -77 512 -77 c 0
 725 -77 896 94 896 307 c 0
 896 456 815 589 683 653 c 0
 662 662 652 687 661 708 c 0
 670 729 696 738 717 729 c 0
 879 652 981 490 981 307 c 0
 981 47 772 -162 512 -162 c 0
657 264 m 1
 666 251 662 234 653 217 c 1
 533 17 l 1
 524 0 500 0 491 17 c 1
 371 217 l 1
 362 234 363 251 367 264 c 2
 486 589 l 2
 495 610 524 610 533 589 c 2
 657 264 l 1
585 243 m 2
 594 243 601 251 597 264 c 2
 529 486 l 2
 525 499 503 499 499 486 c 2
 427 264 l 2
 423 251 430 243 439 243 c 2
 585 243 l 2
567 618 m 2
 558 618 554 623 550 627 c 2
 478 721 l 1
 478 640 l 2
 478 627 470 618 457 618 c 0
 444 618 435 627 435 640 c 2
 435 785 l 2
 435 794 439 802 448 806 c 0
 457 810 465 807 474 798 c 1
 546 704 l 1
 546 785 l 2
 546 798 554 806 567 806 c 0
 580 806 589 798 589 785 c 2
 589 640 l 2
 589 631 585 622 576 618 c 1
 567 618 l 2
EndSplineSet
EndChar
